<svg id="Capa_1" data-name="Capa 1" xmlns="http://www.w3.org/2000/svg" viewBox="0 0 6.17 5.95"><defs><style>.cls-1{fill:#7e6ad1;}</style></defs><path class="cls-1" d="M2.82,5.17A2.43,2.43,0,1,1,5.24,2.74,2.42,2.42,0,0,1,2.82,5.17Zm0-4.26A1.84,1.84,0,1,0,4.66,2.74,1.84,1.84,0,0,0,2.82.91Z" transform="translate(-0.4 -0.32)"/><path class="cls-1" d="M6.28,6.27a.31.31,0,0,1-.2-.07L4.14,4.46a.3.3,0,0,1,0-.42.29.29,0,0,1,.41,0L6.47,5.76a.3.3,0,0,1,0,.42A.27.27,0,0,1,6.28,6.27Z" transform="translate(-0.4 -0.32)"/></svg>