<svg id="Capa_1" data-name="Capa 1" xmlns="http://www.w3.org/2000/svg" xmlns:xlink="http://www.w3.org/1999/xlink" viewBox="0 0 12.09 13.5"><defs><style>.cls-1{fill:url(#Degradado_sin_nombre_6);}</style><linearGradient id="Degradado_sin_nombre_6" x1="7.71" y1="907.79" x2="8.28" y2="907.22" gradientTransform="matrix(21.08, 0, 0, -23.53, -161.13, 21363.01)" gradientUnits="userSpaceOnUse"><stop offset="0" stop-color="#ffbbba"/><stop offset="1" stop-color="#e73e79"/></linearGradient></defs><g id="logout"><g id="ic_logout" data-name="ic logout"><g id="iconspace_Power_25px" data-name="iconspace Power 25px"><path id="Combined_Shape" data-name="Combined Shape" class="cls-1" d="M3.47,12.39a6.16,6.16,0,0,1,0-8.64A6,6,0,0,1,5.73,2.3a.58.58,0,0,1,.75.34.6.6,0,0,1-.34.76h0A5,5,0,0,0,4.3,11.57a4.82,4.82,0,0,0,6.82.06l.07-.06A5,5,0,0,0,9.37,3.4a.58.58,0,0,1,.39-1.1A6,6,0,0,1,12,3.75a6.16,6.16,0,0,1,0,8.64,6,6,0,0,1-8.48.08l-.07-.08Zm3.69-8V1.29a.59.59,0,1,1,1.17,0V4.41a.59.59,0,0,1-1.17,0Z" transform="translate(-1.7 -0.69)"/></g></g></g></svg>