<svg id="Capa_1" data-name="Capa 1" xmlns="http://www.w3.org/2000/svg" viewBox="0 0 5.87 5.87"><defs><style>.cls-1{fill:#7e6ad1;fill-rule:evenodd;}</style></defs><path class="cls-1" d="M6.2,2.78l-.52-.2a.28.28,0,0,1-.15-.37l.23-.5A.3.3,0,0,0,5.7,1.4L5.34,1A.29.29,0,0,0,5,1l-.5.23a.28.28,0,0,1-.37-.15L4,.54A.28.28,0,0,0,3.7.36H3.19a.27.27,0,0,0-.26.18l-.2.52a.28.28,0,0,1-.37.15L1.86,1A.29.29,0,0,0,1.55,1l-.36.36a.3.3,0,0,0-.06.31l.23.5a.28.28,0,0,1-.16.37l-.51.2A.28.28,0,0,0,.51,3v.51a.27.27,0,0,0,.18.26L1.2,4c.54.25-.34.86,0,1.18l.36.36a.27.27,0,0,0,.31.06l.5-.23a.28.28,0,0,1,.37.16l.2.51a.27.27,0,0,0,.26.18H3.7A.28.28,0,0,0,4,6.05l.2-.51c.25-.54.86.34,1.18,0l.36-.36a.29.29,0,0,0,.06-.31l-.23-.5c-.19-.56.86-.37.85-.83V3A.28.28,0,0,0,6.2,2.78ZM3.7,4.58A1.31,1.31,0,0,1,3.19,2,1.31,1.31,0,0,1,3.7,4.58Z" transform="translate(-0.51 -0.36)"/></svg>