<svg id="Capa_1" data-name="Capa 1" xmlns="http://www.w3.org/2000/svg" xmlns:xlink="http://www.w3.org/1999/xlink" viewBox="0 0 13.08 14.45"><defs><style>.cls-1{fill:url(#Degradado_sin_nombre_3);}.cls-2{fill:#67b3f2;}</style><linearGradient id="Degradado_sin_nombre_3" x1="8.04" y1="900.02" x2="8.2" y2="899.31" gradientTransform="matrix(22.8, 0, 0, -25.2, -178.02, 22679.95)" gradientUnits="userSpaceOnUse"><stop offset="0" stop-color="#a5ddff"/><stop offset="1" stop-color="#23429d"/></linearGradient></defs><g id="CS"><g id="ic_CS_woman" data-name="ic CS woman"><g id="CS_Woman" data-name="CS Woman"><path id="Combined_Shape-2" data-name="Combined Shape-2" class="cls-1" d="M1.55,14.76a.35.35,0,0,1-.34-.35.25.25,0,0,1,0-.08l.47-1.9A1.74,1.74,0,0,1,3,11.16l1.65-.34a3.11,3.11,0,0,0,6.13,0l1.65.34a1.74,1.74,0,0,1,1.34,1.27l.47,1.9a.34.34,0,0,1-.25.42H1.55Zm4-4.39.33-.89A4.06,4.06,0,0,1,3.67,5.87V5.12h.05c1.82,0,3.42-.71,5.34-2.39a3.63,3.63,0,0,0,2.74,2.2h0v.94A4.09,4.09,0,0,1,9.71,9.44,1,1,0,1,0,9.86,11a2.22,2.22,0,0,1-4.33-.64Zm-2.76.14L3.1,7.88h.33A4.7,4.7,0,0,0,5,9.77l-.11.31-2,.4-.13,0Zm10,0-.13,0-2-.4-.11-.31a4.7,4.7,0,0,0,1.59-1.89h.33l.33,2.63Zm-.4-3.32a4.57,4.57,0,0,0,.18-1.32V4.38a4.44,4.44,0,0,0,0-.63h.1a1,1,0,0,1,1,1V6.16a1,1,0,0,1-1,1Zm-9.39,0a1,1,0,0,1-1-1h0V4.78a1,1,0,0,1,1-1H3a4.46,4.46,0,0,0,0,.63V5.87a5,5,0,0,0,.19,1.32Zm.74-2.86a4.07,4.07,0,0,1,8.14-.19A3.22,3.22,0,0,1,9.56,1.93.39.39,0,0,0,9,1.72a.29.29,0,0,0-.12.07C7,3.6,5.45,4.33,3.72,4.33Z" transform="translate(-1.21 -0.31)"/><path id="Path-6" class="cls-2" d="M9.12,10.63a.35.35,0,0,0,.35-.35.35.35,0,0,0-.35-.34.34.34,0,0,0-.34.34.35.35,0,0,0,.34.35Z" transform="translate(-1.21 -0.31)"/></g></g></g></svg>