<svg id="Capa_1" data-name="Capa 1" xmlns="http://www.w3.org/2000/svg" viewBox="0 0 366.4 465.15"><defs><style>.cls-1{fill:#692db7;}.cls-2{fill:#27ffbc;}.cls-3{fill:#040000;}.cls-4{fill:#fff;}.cls-5{fill:none;stroke:#27ffbc;stroke-miterlimit:10;stroke-width:3px;stroke-dasharray:12;}.cls-6{fill:#24756f;}.cls-7{fill:#ffc15e;}</style></defs><path class="cls-1" d="M3.84,80.53c.47-103.58,158-103.57,158.4,0C162,133.59,119.86,231.31,79.43,230,40.94,228.77,4.06,131,3.84,80.53Z" transform="translate(-3.84 -2.85)"/><path class="cls-2" d="M350.63,301.7a83.39,83.39,0,0,0-166.77,0c0,46.05,33.43,165.21,79.48,165.21S350.63,347.75,350.63,301.7Z" transform="translate(-3.84 -2.85)"/><path class="cls-3" d="M41.67,70.2c-4.58,10.08.59,5.18-6.71,20.14,4.39.74,9.91-2.66,3.77,4.84C47.35,99.36,54.07,106,61.28,112c-.67-11-3.93-32.46,7.93-23.9,5.93,5.93,5.93,5.93,5.93,3s39.08-14.88,38.54-17.8C107.75,40.66,56.5,37.58,41.67,70.2Z" transform="translate(-3.84 -2.85)"/><path class="cls-4" d="M79.17,125.26s.64,19.43,7.2,19.31C72,148,78.23,147.26,72.17,147.4l-3-20.75S77.28,120.91,79.17,125.26Z" transform="translate(-3.84 -2.85)"/><path class="cls-4" d="M75.14,97C67,76.88,52.69,91.93,62.52,106.71" transform="translate(-3.84 -2.85)"/><path class="cls-3" d="M51.74,53.42S25.83,72,35.93,93.89c9.74,4,17,11.12,24.85,17.63C57.36,89.11,62.62,86.4,74.17,92.7L92,80.27s16.79-10.07,16.79-13.43S92,29.92,51.74,53.42Z" transform="translate(-3.84 -2.85)"/><path class="cls-4" d="M59.45,98.05c5.82,27.81,13.37,9.56,4,51L87,152.44C85.47,145.15,81.17,74.39,59.45,98.05Z" transform="translate(-3.84 -2.85)"/><path class="cls-3" d="M35,90.34c-25.9,18.14,24.35,34.84,16.78,10.07C48.38,93.7,35,90.34,35,90.34Z" transform="translate(-3.84 -2.85)"/><path class="cls-3" d="M48.38,107.12s-3.35,43.64,47,40.28,40.28,36.93,30.21,43.64C118.88,167.55,129,170.9,82,174.26,8.46,188.39-17.22,83.61,45,103.77" transform="translate(-3.84 -2.85)"/><path class="cls-3" d="M39.28,96s5.49,22.81,28.82,24.27c0-6.53,0-7.85,0-13.13-18.79-10,17.82-24.37,3.46-23.08Z" transform="translate(-3.84 -2.85)"/><line class="cls-5" x1="27.28" y1="390.81" x2="320.29" y2="68.18"/><path class="cls-1" d="M226.17,442c8.56.19,24,8.28,32.5,7.79s10-9.52,18.31-10.66c3.77-.51,7.5-1.18,11.25-1.77l.63-.14c1.48-.32,2.95-.62,4.43-.95A290.59,290.59,0,0,0,337.56,423c3.52-1.4,7-2.91,10.43-4.48l.87-.46c1.77-.95,3.54-1.88,5.29-2.88a125.27,125.27,0,0,0,15.21-10.19,2.36,2.36,0,0,0,.16-3.54c-23.73-23-46.45-43.48-52.37-48.79a2.32,2.32,0,0,0-3-.06c-9.29,7.61-58.09,48.19-89.5,85.71a2.3,2.3,0,0,0,.54,3.47A2.18,2.18,0,0,0,226.17,442Z" transform="translate(-3.84 -2.85)"/><path id="Trazado_223" data-name="Trazado 223" class="cls-4" d="M280.81,388.36c-14.25,17-27,33.21-27,33.21h0l.32.31a15,15,0,0,0,21.14-.86l53.42-57.95-25.83-29.82,19.87-35s-35.93-44.86-61.66-7.58l-22.84,69a59.55,59.55,0,0,0,31.31,2.86Z" transform="translate(-3.84 -2.85)"/><path id="Trazado_230" data-name="Trazado 230" d="M238.13,424a.64.64,0,0,1-.45-1.09l40.18-39.7-8.69-20a54.23,54.23,0,0,1-31.17-3,.64.64,0,0,1-.37-.8l5.67-17.13s0,0,0-.05a.64.64,0,0,1,1.2.45L239,359.22a52,52,0,0,0,30.34,2.62.63.63,0,0,1,.75.36l9.09,20.87a.62.62,0,0,1-.13.71l-40.5,40a.64.64,0,0,1-.45.19Z" transform="translate(-3.84 -2.85)"/><path id="Trazado_232" data-name="Trazado 232" class="cls-4" d="M241.54,437.73a13.93,13.93,0,0,1-6.76-11.91,1.07,1.07,0,0,1,2.13,0A11.73,11.73,0,0,0,242.73,436c8,5.31,22.55,5.68,30.39,2.49,1.68-1.86,16.23-17.92,30.88-33.8,31.63-34.3,32.77-34.35,33.59-34.39a1.2,1.2,0,0,1,.83.3,1.05,1.05,0,0,1,.33.62,1.07,1.07,0,0,1-.89,1.22c-3.65,2.36-39.71,41.57-63.32,67.66a1.1,1.1,0,0,1-.38.27,35.43,35.43,0,0,1-13.25,2.25A36.62,36.62,0,0,1,241.54,437.73ZM337,372.12m0,0" transform="translate(-3.84 -2.85)"/><path id="Trazado_239" data-name="Trazado 239" class="cls-1" d="M249.31,326.17c-.05.13-8.44-2.15-14.1-3.71a1.88,1.88,0,0,1-1.14-.89,1.9,1.9,0,0,1,.72-2.59c10.51-6,23.62-20.3,23.62-20.3Z" transform="translate(-3.84 -2.85)"/><path id="Trazado_240" data-name="Trazado 240" class="cls-3" d="M274.23,309.93a8.77,8.77,0,0,0-10.17-4.6h0a1.92,1.92,0,0,1-1.08-3.68,12.46,12.46,0,0,1,14.69,6.58,2,2,0,0,1,.2.84,1.92,1.92,0,0,1-3.64.86Z" transform="translate(-3.84 -2.85)"/><path id="Trazado_241" data-name="Trazado 241" class="cls-3" d="M265.53,308.75c1.23.34,1.69,2.67,1,5.24s-2.25,4.38-3.49,4.05-1.71-2.68-1-5.24S264.3,308.42,265.53,308.75Z" transform="translate(-3.84 -2.85)"/><path id="Trazado_242" data-name="Trazado 242" class="cls-6" d="M310.06,321.81l12.67-23.6-20.09-6-6.72,8.07,8.34,13.08Z" transform="translate(-3.84 -2.85)"/><ellipse id="Elipse_2" data-name="Elipse 2" class="cls-4" cx="310.07" cy="323.6" rx="14.09" ry="9.87" transform="translate(-135.43 396.87) rotate(-56)"/><path id="Trazado_243" data-name="Trazado 243" class="cls-3" d="M246.53,289.8A7.57,7.57,0,0,1,241.39,278c3.62-5.21,8.75-9.86,23.2-5.9,9.44,2.59,12.8-9.05,32.25-6.55,18,2.31,25.82,15.1,29.23,24.91a7.6,7.6,0,0,1-8.29,10Z" transform="translate(-3.84 -2.85)"/><path class="cls-1" d="M360.14,392.16h0a24.51,24.51,0,0,1,2.59,33c-11.78,15.08-32,34.71-60.71,41.43a23.74,23.74,0,0,1-2.92.5c-22.57,2.56-89-1.22-94.7-1.7l-1.14-.07,4.26-7.19a24.28,24.28,0,0,1,3-4l2.78-3.06a24.26,24.26,0,0,1,23.82-7.35c14.52,3.66,39.42,4.24,63.67-22,10.08-10.92,17.83-19.93,23.68-27.09A24.51,24.51,0,0,1,360.14,392.16Z" transform="translate(-3.84 -2.85)"/><path class="cls-1" d="M229.06,438.86s16.14,14.85,37.68,4.31c10.63-4.31,15.31-5.87,15.31-5.87l-6.24,14-14,6.23-31.18,3.12H219.7L215,459.12l-3.12-4.68,4.68-6.23L227.5,437.3" transform="translate(-3.84 -2.85)"/><path class="cls-7" d="M106.62,95s4.49,11.23,9.29,17a1.18,1.18,0,0,1-1,1.94c-3.64-.34-9-.85-9-.94Z" transform="translate(-3.84 -2.85)"/><path class="cls-4" d="M64.07,140.24c7.49,5.62,18.32,6.32,28.09,7.49l.09-15.91c.51.09,1,.17,1.53.22a12.56,12.56,0,0,0,14-13l-1.23-29.61c-6.79-27.38-37.6-9.14-37.6-9.14l2.21,25.09Z" transform="translate(-3.84 -2.85)"/><path class="cls-3" d="M93.17,98.25a1.19,1.19,0,0,1-1-1.8,7.76,7.76,0,0,1,9.44-3.38,1.19,1.19,0,0,1-.85,2.23c-4.11-1.56-6.44,2.21-6.54,2.37A1.17,1.17,0,0,1,93.17,98.25Z" transform="translate(-3.84 -2.85)"/><path class="cls-3" d="M101.09,102.13c-.17,1.64-1,2.91-1.75,2.82s-1.32-1.47-1.15-3.12,1-2.91,1.75-2.82S101.25,100.48,101.09,102.13Z" transform="translate(-3.84 -2.85)"/><path class="cls-3" d="M76.07,94.7l.07,0A7.16,7.16,0,0,0,81.66,88l.27-6.78-13-.94,1.4,17.54Z" transform="translate(-3.84 -2.85)"/><path class="cls-3" d="M106.35,89.65c7.44,2.07,30.38-16.65,7.82-30.7-8.4-5.23-28.92-2.12-40.14,7.67-13.56-3.78-15.49,15.44-4.42,21.56,3.23,1.78,9.41-4.74,12.32-7Z" transform="translate(-3.84 -2.85)"/><ellipse class="cls-4" cx="70.6" cy="100.61" rx="7.84" ry="11.21" transform="translate(-25.12 16.12) rotate(-13.32)"/><path d="M123.84,61.36a.71.71,0,0,1-.41-.13c-3.75-2.88-10.65-5.91-22.22-4a47.81,47.81,0,0,0-13.34,4.06.67.67,0,0,1-.91,0,.68.68,0,0,1,0-.94c.53-.53,6.57-3.15,13.73-4.35,6.74-1.12,16.29-1.3,23.55,4.25a.66.66,0,0,1,.12.93A.65.65,0,0,1,123.84,61.36ZM87.9,61.21l0,0Z" transform="translate(-3.84 -2.85)"/><polygon class="cls-3" points="88.42 128.97 80.59 125.27 89.2 140.7 88.42 128.97"/><path d="M72.86,153.06H62.14a1.19,1.19,0,0,1-1.2-1.19,1.21,1.21,0,0,1,1.2-1.2H72.86a1.2,1.2,0,1,1,0,2.39Z" transform="translate(-3.84 -2.85)"/></svg>