<svg id="Capa_1" data-name="Capa 1" xmlns="http://www.w3.org/2000/svg" viewBox="0 0 589.26 799.29"><defs><style>.cls-1{fill:#27ffbc;}.cls-2{fill:#692db7;}.cls-3{fill:#555384;}.cls-4{fill:#343451;}.cls-5{fill:#fff;}.cls-6{fill:#ffbd46;}.cls-7{fill:#040000;}.cls-8{fill:#ffc15e;}</style></defs><path id="Rect치ngulo_15" data-name="Rect치ngulo 15" class="cls-1" d="M509.07,779.94a157.71,157.71,0,0,1-75.53,19.13H17.22A14.48,14.48,0,0,1,2.74,784.59V17.37A14.48,14.48,0,0,1,17.22,2.9h560.3A14.47,14.47,0,0,1,592,17.37V640.61a158.41,158.41,0,0,1-82.93,139.33" transform="translate(-2.74 -2.9)"/><g id="Capa_5" data-name="Capa 5"><path id="Rect치ngulo_34" data-name="Rect치ngulo 34" class="cls-2" d="M444.13,802.08H168.19C109.42,800,91,804.85,86.63,799.75c-.87-1,0-21.08,0-22.47l.26-403.73c0-18.15,13.48-32.86,30.1-32.86H448.57c19.5,0,35.3,17.25,35.3,38.54V767.85s1.24,22.58-3.42,24.91S468.4,797.42,444.13,802.08Z" transform="translate(-2.74 -2.9)"/></g><path id="Trazado_396" data-name="Trazado 396" class="cls-2" d="M447.78,258.08l9.84,26.24s-45.93,29.53-85.3,19.69l13.13-23Z" transform="translate(-2.74 -2.9)"/><path id="Trazado_397" data-name="Trazado 397" class="cls-2" d="M370.92,170.58s-14.48-3.42-24.32,16.27-16.41,39.37-23,36.09-39.37-42.65-39.37-42.65-26.24,9.85-19.68,23,56.89,64.76,66.73,58.2,39.61-37.28,39.61-37.28l1.92-40.61.41-10.66" transform="translate(-2.74 -2.9)"/><path id="Trazado_398" data-name="Trazado 398" class="cls-3" d="M451.06,281s29.53,42.64-13.12,68.9S359.2,376.18,365.76,386s55.77,164.05,55.77,164.05L375.6,563.2s-72.17-203.42-72.17-210,19.68-19.69,45.93-32.81,27.71-15.57,27.71-15.57S444.5,297.45,451.06,281Z" transform="translate(-2.74 -2.9)"/><path id="Trazado_399" data-name="Trazado 399" class="cls-4" d="M365.76,304s-88.58,26.24-91.86,39.37-55.77,213.25-55.77,213.25l49.21,6.56,52.49-164.05s-16.4-42.65-13.12-49.21,70.37-45.1,70.37-45.1Z" transform="translate(-2.74 -2.9)"/><path id="Trazado_400" data-name="Trazado 400" class="cls-5" d="M392,556.63l13.12,29.52s23,0,23-9.84-6.56-26.24-6.56-26.24Z" transform="translate(-2.74 -2.9)"/><path id="Trazado_401" data-name="Trazado 401" class="cls-5" d="M253.1,562l-8.73,30.72s-26.24,0-26.24-6.56S225.46,557,225.46,557Z" transform="translate(-2.74 -2.9)"/><path id="Trazado_402" data-name="Trazado 402" class="cls-6" d="M428.1,576.31s23,16.41,16.4,19.69-78.74,39.38-78.74,32.81,29.53-45.93,36.09-45.93S428.1,576.31,428.1,576.31Z" transform="translate(-2.74 -2.9)"/><path id="Trazado_403" data-name="Trazado 403" class="cls-6" d="M245.55,593.21s10,26.39,2.73,25.48-87.36-11-83.71-16.4,50.05-21.83,55.51-18.18S245.55,593.21,245.55,593.21Z" transform="translate(-2.74 -2.9)"/><path id="Trazado_404" data-name="Trazado 404" class="cls-7" d="M350,96c-.59,3.23,42.05,14.43,42.05,17.71s.33,5.16,6.89-1.4-2.33,6.47-2.33,16.31-27.52,80.24,25,73.68,29.53-75.46,13.12-111.55S356.52,59.92,350,96Z" transform="translate(-2.74 -2.9)"/><path id="Trazado_406" data-name="Trazado 406" class="cls-5" d="M387.54,151.55s-.7,21.5-8,21.37c11.73,3,12.43,3.13,12.43,3.13h3.28l3.28-23S389.64,146.74,387.54,151.55Z" transform="translate(-2.74 -2.9)"/><path id="Trazado_408" data-name="Trazado 408" class="cls-5" d="M241.6,150.76s-6.56,19.69,6.57,29.53S265,194.73,265,194.73l11.73-10.89Z" transform="translate(-2.74 -2.9)"/><path id="Trazado_409" data-name="Trazado 409" class="cls-7" d="M235.05,144.2l42.65,39.37,6.56-3.28-42.65-42.65S235.05,134.35,235.05,144.2Z" transform="translate(-2.74 -2.9)"/><path id="Trazado_410" data-name="Trazado 410" class="cls-5" d="M346.8,296.73a49.46,49.46,0,0,1-7.28.72c-3.29,0-26.25,9.84-29.53,13.12s-3.28,13.12-3.28,13.12L359.2,304Z" transform="translate(-2.74 -2.9)"/><path class="cls-8" d="M356.14,118.2s-5,12.43-10.3,18.85a1.32,1.32,0,0,0,1.12,2.16c4-.38,10-1,10-1Z" transform="translate(-2.74 -2.9)"/><path class="cls-5" d="M370.36,159.21a13.92,13.92,0,0,1-15.46-14.43L356.26,112c7.52-30.32,41.63-10.13,41.63-10.13l-2.44,27.78,9.95,51.52,17.61,0,0,18.91a30.44,30.44,0,0,1-30.48,30.41h0A30.44,30.44,0,0,1,362.1,200l0-18.9,8.8-5.89L372,159C371.48,159.06,370.92,159.14,370.36,159.21Z" transform="translate(-2.74 -2.9)"/><path class="cls-7" d="M371,121.79a1.26,1.26,0,0,0,.67-.19,1.31,1.31,0,0,0,.46-1.8A8.59,8.59,0,0,0,361.72,116a1.33,1.33,0,0,0,.94,2.48c4.55-1.73,7.13,2.45,7.24,2.63A1.34,1.34,0,0,0,371,121.79Z" transform="translate(-2.74 -2.9)"/><path class="cls-7" d="M362.26,126.08c.19,1.82,1.06,3.22,1.94,3.13s1.46-1.64,1.28-3.46-1.06-3.22-1.94-3.13S362.08,124.26,362.26,126.08Z" transform="translate(-2.74 -2.9)"/><path class="cls-7" d="M390,117.85h-.06a8,8,0,0,1-6.12-7.41l-.3-7.51,14.41-1-1.55,19.43Z" transform="translate(-2.74 -2.9)"/><path class="cls-7" d="M356.44,112.26c-8.24,2.3-33.65-18.44-8.66-34,9.3-5.79,32-2.34,44.45,8.5,15-4.19,17.15,17.1,4.89,23.87-3.57,2-10.42-5.25-13.64-7.71Z" transform="translate(-2.74 -2.9)"/><ellipse class="cls-5" cx="396.03" cy="124.4" rx="12.41" ry="8.69" transform="translate(181.01 478.23) rotate(-76.68)"/><path d="M336.49,80.65a.73.73,0,0,1,.13-1c8-6.15,18.62-6,26.08-4.71,7.94,1.33,14.62,4.23,15.2,4.82a.73.73,0,0,1,0,1,.74.74,0,0,1-1,0,52.93,52.93,0,0,0-14.77-4.49c-12.81-2.07-20.46,1.29-24.61,4.47a.71.71,0,0,1-.45.16A.72.72,0,0,1,336.49,80.65Zm40.4.14,0,0Z" transform="translate(-2.74 -2.9)"/><polygon class="cls-7" points="369.3 156.06 377.96 151.96 368.43 169.06 369.3 156.06"/><path d="M393.52,182.48l11.87,0a1.33,1.33,0,1,0,0-2.65H393.52a1.32,1.32,0,0,0,0,2.64Z" transform="translate(-2.74 -2.9)"/><path class="cls-2" d="M417.06,213.2c-3.92-.83-7.79-1.86-11.68-2.82-.59-.1-1.46-.24-2.49-.36-3.4-.4-6.78-.9-10.18-1.24-13.11-1.31-22.07,2-34.56,5.61a21.67,21.67,0,0,1-8.48.7c5,23,18.94,56.11,18.94,56.11l-29.52,23,13.13,16.41s95.14-49.21,95.14-52.49.49-41.69-1.87-68.86C434.53,193.94,428.44,215.62,417.06,213.2Z" transform="translate(-2.74 -2.9)"/><path class="cls-2" d="M347.62,186.89s14.19-13.12,21-16.31c3.11-1.46,3.49,1.78,2.33,4.66-4.66,11.65,7,11.65,11.66,9.32,14.73-7.37,23.3-11.65,32.62-14s28-2.33,30.29,18.64-19.33,66.14-19.33,66.14-22.61,6.1-27.27,6.1-35-7-35-7-21-28-21-34.95-4.66-11.66-4.66-14S343,191.55,347.62,186.89Z" transform="translate(-2.74 -2.9)"/></svg>