<svg id="Capa_1" data-name="Capa 1" xmlns="http://www.w3.org/2000/svg" viewBox="0 0 343.19 464.34"><defs><style>.cls-1{fill:#27ffbc;}.cls-2{fill:#fff;}.cls-3{fill:#692db7;}.cls-4{fill:#040000;}.cls-5{fill:#34314f;}</style></defs><path id="Trazado_314" data-name="Trazado 314" class="cls-1" d="M300.26,1.66H46.14A44.53,44.53,0,0,0,1.61,46.19V420.82a44.54,44.54,0,0,0,44.53,44.54H300.26a44.54,44.54,0,0,0,44.54-44.54V46.19A44.54,44.54,0,0,0,300.26,1.66" transform="translate(-1.61 -1.66)"/><path class="cls-2" d="M172.52,247l-15.88-55.89a9.37,9.37,0,0,0-1.16-2.58c-17.66-26.43-42.51-8.94-53.2.72a9.42,9.42,0,0,0-2.09,11.28L112,223.59a9.37,9.37,0,0,1-.72,9.75l-6.37,8.88A9.41,9.41,0,0,0,106,254.47l17,16.3a9.4,9.4,0,0,0,14.2-1.37l4.59-6.53a9.52,9.52,0,0,1,9-3.9,55.24,55.24,0,0,0,14-.12A9.36,9.36,0,0,0,172.52,247Z" transform="translate(-1.61 -1.66)"/><path class="cls-3" d="M158.47,197.51s11.93,14.21,21.72,20.36a1.82,1.82,0,0,1-.54,3.32c-5.47,1.25-13.58,3.08-13.61,2.95S158.47,197.51,158.47,197.51Z" transform="translate(-1.61 -1.66)"/><path class="cls-4" d="M117.28,216.82l5.09-25.46s28.87,17.23,46.59-10-24-46.67-47.22-27C95.31,177.4,99,169.7,99,169.7s-11.09-9.4-23-2.09c-6,3.66-11.48,15.32,1.1,27.1l32.83,30.37Z" transform="translate(-1.61 -1.66)"/><ellipse class="cls-2" cx="108.2" cy="217.47" rx="9.43" ry="13.47" transform="translate(-99.36 87.04) rotate(-31.53)"/><path class="cls-4" d="M145.22,258s-10.46-1.87-18-9.81l12,18.37Z" transform="translate(-1.61 -1.66)"/><path class="cls-4" d="M141.29,208.55a1.83,1.83,0,0,0,1.61-1c.15-.27,3.53-6.15,9.9-4a1.83,1.83,0,1,0,1.19-3.46c-7.46-2.54-12.61,2.6-14.3,5.68a1.83,1.83,0,0,0,.73,2.48A1.86,1.86,0,0,0,141.29,208.55Z" transform="translate(-1.61 -1.66)"/><ellipse class="cls-4" cx="152.26" cy="211.33" rx="2.24" ry="4.59" transform="translate(-43.58 36.13) rotate(-12.45)"/><path class="cls-4" d="M149.33,192.3l.36,0c.67-.14,16.42-3.47,23.08-16.75,4.61-9.19,3.7-20.73-2.71-34.29a1.83,1.83,0,0,0-3.31,1.56c5.91,12.5,6.83,23,2.75,31.09-5.87,11.71-20.39,14.77-20.53,14.8a1.83,1.83,0,0,0,.36,3.62Z" transform="translate(-1.61 -1.66)"/><path class="cls-5" d="M138.83,255.93a41.23,41.23,0,0,1-5-2.53c-1.82-1.14-3.41-2.36-3.41-2.36Z" transform="translate(-1.61 -1.66)"/><path class="cls-4" d="M112.32,225.15a1.8,1.8,0,0,0,1.06-.33,1.84,1.84,0,0,0,.44-2.55l-8.26-11.71a1.83,1.83,0,1,0-3,2.11l8.25,11.71A1.82,1.82,0,0,0,112.32,225.15Z" transform="translate(-1.61 -1.66)"/><path d="M161.22,237.81a16.18,16.18,0,0,0,8.56-2.75,1.83,1.83,0,0,0-2.13-3c-.08.06-4.92,3.41-9.51,1.46a1.83,1.83,0,0,0-1.42,3.37A11.5,11.5,0,0,0,161.22,237.81Z" transform="translate(-1.61 -1.66)"/><path class="cls-3" d="M79.93,274.26s18.17-35.84,38.12-20S193.24,356.4,193.24,356.4l-29.75,35.41Z" transform="translate(-1.61 -1.66)"/><path class="cls-3" d="M168.78,334.12l21.76-48.87,47.21,9.44s-20.23,101.17-41.82,102.52-54-14.84-54-14.84L66.44,281.2c-1.1-1.57,23.4-47.54,41.82-39.12" transform="translate(-1.61 -1.66)"/><path class="cls-2" d="M194.58,286.6l20.24-67.45s-22.86-29.35-17.94-32,20.64-4.47,20.64-4.47,15.55,16.8,14.83,36.42,0,74.19,0,74.19" transform="translate(-1.61 -1.66)"/><polygon class="cls-3" points="172.74 193.22 176.79 208.06 205.12 206.71 195.68 185.12 172.74 193.22"/><path class="cls-2" d="M195.93,186.78s1.35-2.7,6.75-5.39,10.79-4,16.18,0,13.49,20.23,13.49,35.07-17.53,4-17.53,4S198.75,188,196,187.41" transform="translate(-1.61 -1.66)"/><path class="cls-3" d="M51.6,466h79.59c1.69-48.24,6.74-149.73,6.74-149.73l-33.5-59.46s-38,10.9-46.08,47.32c-5.56,25-22.85,106.84-27,155.13C28.67,466,47.31,466,51.6,466Z" transform="translate(-1.61 -1.66)"/><path class="cls-3" d="M34.75,460.64l.61.05c.75,0,1.49,0,2.23-.05,1.78-.06,3.57-.13,5.35-.16,5.33-.07,10.66,0,16,0H89.57c11,0,21.92.28,32.88.54a3.28,3.28,0,0,0,3.36-3.11c2.72-54.54,8.58-169.79,9.17-181.39a3.18,3.18,0,0,0-.41-1.76c-1.9-3.37-6.95-9.7-10.13-17.84-.34-.88-16.64-15.86-17.53-16.18l-2.6,1.86a3.28,3.28,0,0,0-2.8.28c-5.39,3.28-25.45,16.37-33.72,34.28C50.28,315.07,37.62,407.8,32,457a3.28,3.28,0,0,0,2.76,3.61Z" transform="translate(-1.61 -1.66)"/><path class="cls-3" d="M217.52,178.69,262,165.2l6.74,39.12-37.91,3.61S222.91,178.69,217.52,178.69Z" transform="translate(-1.61 -1.66)"/></svg>