<svg id="Capa_1" data-name="Capa 1" xmlns="http://www.w3.org/2000/svg" xmlns:xlink="http://www.w3.org/1999/xlink" viewBox="0 0 14.45 13.08"><defs><style>.cls-1{fill:url(#Degradado_sin_nombre_4);}</style><linearGradient id="Degradado_sin_nombre_4" x1="8.77" y1="897.64" x2="8" y2="898.39" gradientTransform="matrix(25.2, 0, 0, -22.8, -201.64, 20483.53)" gradientUnits="userSpaceOnUse"><stop offset="0" stop-color="#9d61f7"/><stop offset="1" stop-color="#80f0ff"/></linearGradient></defs><g id="verification"><g id="ic_verification" data-name="ic verification"><g id="Iconspace_Folder_Approve_25px" data-name="Iconspace Folder Approve 25px"><path id="Path-8" class="cls-1" d="M2.93,13.43A2.41,2.41,0,0,1,.52,11V2.51A2.16,2.16,0,0,1,2.68.36H4.19A1,1,0,0,1,5,.68L7.1,3a.36.36,0,0,0,.26.11h7.27a.34.34,0,0,1,.34.34h0V11a2.41,2.41,0,0,1-2.41,2.41H2.93ZM5.44,8a.33.33,0,0,0,0,.48h0L6.81,9.89a.36.36,0,0,0,.49,0l0,0,2.75-3.44A.34.34,0,0,0,10,5.94a.32.32,0,0,0-.21-.08A.35.35,0,0,0,9.54,6L7,9.13,5.92,8A.33.33,0,0,0,5.44,8Zm9.19-5.61H7.51L6.22,1h6.69a2.06,2.06,0,0,1,1.95,1.41A.85.85,0,0,0,14.63,2.42Z" transform="translate(-0.52 -0.36)"/></g></g></g></svg>