<svg xmlns="http://www.w3.org/2000/svg" width="24" height="25" viewBox="0 0 24 25">
    <g fill="none" fill-rule="evenodd">
        <g fill="#FF4B4B">
            <g>
                <g>
                    <g>
                        <g>
                            <path d="M12 2C6.486 2 2 6.486 2 12s4.486 10 10 10 10-4.486 10-10S17.514 2 12 2zm2.707 11.293c.391.391.391 1.023 0 1.414-.195.195-.451.293-.707.293-.256 0-.512-.098-.707-.293L12 13.414l-1.293 1.293c-.195.195-.451.293-.707.293-.256 0-.512-.098-.707-.293-.391-.391-.391-1.023 0-1.414L10.586 12l-1.293-1.293c-.391-.391-.391-1.023 0-1.414s1.023-.391 1.414 0L12 10.586l1.293-1.293c.391-.391 1.023-.391 1.414 0s.391 1.023 0 1.414L13.414 12l1.293 1.293z" transform="translate(-48 -735) translate(27 640) translate(5 87) translate(16 8.5)"/>
                        </g>
                    </g>
                </g>
            </g>
        </g>
    </g>
</svg>
