<svg xmlns="http://www.w3.org/2000/svg" xmlns:xlink="http://www.w3.org/1999/xlink" width="20" height="21" viewBox="0 0 20 21">
    <defs>
        <path id="eflkkc2cza" d="M0 0L20 0 20 20 0 20z"/>
    </defs>
    <g fill="none" fill-rule="evenodd">
        <g>
            <g>
                <g>
                    <g transform="translate(-298 -522) translate(32 488) translate(264 32.023) translate(2 2)">
                        <mask id="ccd8ma4qcb" fill="#fff">
                            <use xlink:href="#eflkkc2cza"/>
                        </mask>
                        <path fill="#15CC96" d="M10 0C4.477 0 0 4.477 0 10c0 5.522 4.477 10 10 10s10-4.478 10-10c0-5.523-4.477-10-10-10m4.294 7.605l-4.567 6c-.188.248-.479.393-.789.395h-.007c-.307 0-.597-.142-.787-.384l-2.432-3.107c-.34-.434-.264-1.063.171-1.403.434-.341 1.064-.265 1.404.17l1.633 2.087 3.784-4.97c.334-.438.961-.524 1.402-.19.438.336.524.963.188 1.402" mask="url(#ccd8ma4qcb)"/>
                    </g>
                </g>
            </g>
        </g>
    </g>
</svg>
