<svg id="Capa_1" data-name="Capa 1" xmlns="http://www.w3.org/2000/svg" viewBox="0 0 29.57 22.22"><defs><style>.cls-1{fill:#fff;}</style></defs><g id="Grupo_67" data-name="Grupo 67"><path id="Trazado_393" data-name="Trazado 393" class="cls-1" d="M27.51,13.28H1.83a1.45,1.45,0,0,1,0-2.9H27.51a1.45,1.45,0,0,1,0,2.9" transform="translate(-0.38 -0.71)"/><path id="Trazado_394" data-name="Trazado 394" class="cls-1" d="M18.87,22.94a1.45,1.45,0,0,1-1.46-1.45,1.49,1.49,0,0,1,.4-1L26,11.82,17.81,3.16a1.45,1.45,0,0,1,2.11-2L30,11.82l-10,10.66a1.44,1.44,0,0,1-1.05.45" transform="translate(-0.38 -0.71)"/></g></svg>