<svg id="Capa_1" data-name="Capa 1" xmlns="http://www.w3.org/2000/svg" xmlns:xlink="http://www.w3.org/1999/xlink" viewBox="0 0 17.36 17.36"><defs><style>.cls-1{fill:url(#Degradado_sin_nombre_5);}</style><linearGradient id="Degradado_sin_nombre_5" x1="-61.77" y1="876.46" x2="-61.98" y2="876.99" gradientTransform="matrix(24, 0, 0, -24, 1493.68, 21047.22)" gradientUnits="userSpaceOnUse"><stop offset="0" stop-color="#17b7bd"/><stop offset="1" stop-color="#9deb93"/></linearGradient></defs><g id="Group"><g id="Group_3" data-name="Group 3"><g id="plus"><path id="Shape-2" class="cls-1" d="M10.15,18.11a8.69,8.69,0,1,1,8.68-8.68A8.68,8.68,0,0,1,10.15,18.11ZM6,8.2a.65.65,0,0,0-.7.58.65.65,0,0,0,.7.57H9.69v3.16a.65.65,0,0,0,.7.58.65.65,0,0,0,.7-.58h0V9.35h3.67a.65.65,0,0,0,.7-.57.65.65,0,0,0-.7-.58H11.09V5.33a.65.65,0,0,0-.7-.58.65.65,0,0,0-.7.58V8.2Z" transform="translate(-1.47 -0.74)"/></g></g></g></svg>