<svg id="Capa_1" data-name="Capa 1" xmlns="http://www.w3.org/2000/svg" viewBox="0 0 48.8 48.8"><defs><style>.cls-1{fill:#d8d8d8;}.cls-2{fill:#c4c2cb;}</style></defs><g id="change_photo" data-name="change photo"><circle id="ic_pp" data-name="ic pp" class="cls-1" cx="24.4" cy="24.4" r="24.4"/></g><path id="Path-11" class="cls-2" d="M31,28.66l2.74.91a4,4,0,0,1,2.78,3.84v1.38a1.85,1.85,0,0,1-1.71,1.85H17a1.86,1.86,0,0,1-1.64-1.85V33.41a4.08,4.08,0,0,1,2.79-3.85l2.74-.91a2.8,2.8,0,0,0,1.92-2.41l-.68-.69a2.91,2.91,0,0,1-.69-1l-.69-1.69A9.67,9.67,0,0,1,20.1,18l.24-1.93a4.34,4.34,0,0,1,4.35-4.33h2.45A4.32,4.32,0,0,1,31.49,16l.25,2.13a9.37,9.37,0,0,1-.65,4.71l-.68,1.66a3.2,3.2,0,0,1-.68,1l-.7.69A2.81,2.81,0,0,0,31,28.66Z" transform="translate(-1.11 -0.56)"/></svg>