<svg id="Capa_1" data-name="Capa 1" xmlns="http://www.w3.org/2000/svg" viewBox="0 0 18.7 18.04"><defs><style>.cls-1{fill:#fff;}</style></defs><path class="cls-1" d="M8.18,15.17a7.34,7.34,0,1,1,7.34-7.34A7.35,7.35,0,0,1,8.18,15.17Zm0-12.9a5.57,5.57,0,1,0,5.56,5.56A5.57,5.57,0,0,0,8.18,2.27Z" transform="translate(-0.83 -0.49)"/><path class="cls-1" d="M18.64,18.53a.85.85,0,0,1-.59-.23L12.17,13a.9.9,0,0,1-.06-1.26.88.88,0,0,1,1.25-.06L19.24,17a.9.9,0,0,1,.06,1.26A.88.88,0,0,1,18.64,18.53Z" transform="translate(-0.83 -0.49)"/></svg>