<svg xmlns="http://www.w3.org/2000/svg" xmlns:xlink="http://www.w3.org/1999/xlink" width="15" height="12.75" viewBox="0 0 15 12.75"><defs><style>.a,.b{fill:#b6b7b7;}.b{clip-rule:evenodd;}.c{clip-path:url(#a);}.d{isolation:isolate;}.e{clip-path:url(#b);}.f{clip-path:url(#c);}.g{clip-path:url(#d);}</style><clipPath id="a"><path class="a" d="M7.384-12.974l2.161,2.121v-.107A2.029,2.029,0,0,0,7.5-12.974Zm-2.932.537L5.509-11.4a1.821,1.821,0,0,0-.055.436A2.029,2.029,0,0,0,7.5-8.947,1.953,1.953,0,0,0,7.943-9L9-7.961a3.424,3.424,0,0,1-1.5.356,3.383,3.383,0,0,1-3.409-3.355,3.284,3.284,0,0,1,.361-1.476ZM.682-16.148l1.555,1.53.307.3A7.952,7.952,0,0,0,0-10.961,8.062,8.062,0,0,0,7.5-5.928a8.142,8.142,0,0,0,2.986-.564l.293.282L12.77-4.25l.866-.852L1.548-17ZM7.5-14.316a3.382,3.382,0,0,1,3.409,3.355,3.178,3.178,0,0,1-.245,1.221l2,1.966A7.954,7.954,0,0,0,15-10.961a8.062,8.062,0,0,0-7.5-5.033,8.193,8.193,0,0,0-2.727.47l1.48,1.443A3.491,3.491,0,0,1,7.5-14.316Z" transform="translate(0 17)"/></clipPath><clipPath id="b"><rect class="a" width="22.5" height="20.25"/></clipPath><clipPath id="c"><path class="a" d="M0-4.25H15V-17H0Z" transform="translate(0 17)"/></clipPath><clipPath id="d"><path class="b" d="M-2-21H16V-3H-2Z" transform="translate(2 21)"/></clipPath></defs><g class="c"><g class="d" transform="translate(-3.75 -3.75)"><g class="e"><g class="f" transform="translate(3.75 3.75)"><path class="a" d="M-5-22H17.5V-1.75H-5Z" transform="translate(1.25 18.25)"/></g><g class="g" transform="translate(2.25 0.75)"><g class="f" transform="translate(1.5 3)"><path class="a" d="M-7-26H18.5V-.5H-7Z" transform="translate(1.75 19.25)"/></g></g></g></g></g></svg>