<svg id="Capa_1" data-name="Capa 1" xmlns="http://www.w3.org/2000/svg" viewBox="0 0 63.22 73.73"><defs><style>.cls-1{fill:#7e6ad1;}</style></defs><g id="ic_notif" data-name="ic notif"><g id="iconspace_Notification_25px" data-name="iconspace Notification 25px"><path id="Path-2" class="cls-1" d="M13.42,37.75V54L5.35,66.07A2.11,2.11,0,0,0,5.9,69a2.14,2.14,0,0,0,1.2.36h59a2.1,2.1,0,0,0,1.75-3.29L59.76,54V37.75a23.17,23.17,0,1,0-46.34,0Z" transform="translate(-4.98 -6.15)"/><path id="Path-3" class="cls-1" d="M26.05,73.56H47.12a11.58,11.58,0,0,1-10.54,6.32A11.58,11.58,0,0,1,26.05,73.56ZM36.58,6.16A11.59,11.59,0,0,1,46.89,12a32.6,32.6,0,0,0-20.63,0A11.61,11.61,0,0,1,36.58,6.16Z" transform="translate(-4.98 -6.15)"/></g></g></svg>