<svg id="Capa_1" data-name="Capa 1" xmlns="http://www.w3.org/2000/svg" xmlns:xlink="http://www.w3.org/1999/xlink" viewBox="0 0 46.4 47.67"><defs><style>.cls-1{fill:url(#Degradado_sin_nombre_5);}.cls-2,.cls-3{opacity:0.97;isolation:isolate;}.cls-2{fill:url(#Degradado_sin_nombre_9);}.cls-3{fill:url(#Degradado_sin_nombre_17);}.cls-4{fill:#ffbd46;}</style><linearGradient id="Degradado_sin_nombre_5" x1="10.22" y1="859.72" x2="10.08" y2="859.31" gradientTransform="matrix(112.26, 0, 0, -115.31, -1117.45, 99135.97)" gradientUnits="userSpaceOnUse"><stop offset="0" stop-color="#17b7bd"/><stop offset="1" stop-color="#9deb93"/></linearGradient><linearGradient id="Degradado_sin_nombre_9" x1="9.85" y1="859.94" x2="9.85" y2="859.28" gradientTransform="matrix(45.05, 0, 0, -91.96, -427.51, 79075.18)" gradientUnits="userSpaceOnUse"><stop offset="0" stop-color="#fff2f2" stop-opacity="0.14"/><stop offset="1" stop-color="#fefaf9"/></linearGradient><linearGradient id="Degradado_sin_nombre_17" x1="9.26" y1="860.19" x2="9.26" y2="859.4" gradientTransform="matrix(45.05, 0, 0, -91.96, -382.46, 79075.18)" gradientUnits="userSpaceOnUse"><stop offset="0" stop-color="#fff2f2" stop-opacity="0.14"/><stop offset="1" stop-color="#f9fbfe"/></linearGradient></defs><path id="Shape-3" class="cls-1" d="M48.71,8.07c0,19.1-14.4,40.77-23.2,40.77S2.31,25,2.31,8.07c5.73,0,16-7,23.2-6.9S43,8.07,48.71,8.07Z" transform="translate(-2.31 -1.17)"/><path id="Shape-4" class="cls-2" d="M6.72,11.43c4.6,0,12.85-5.13,18.62-5.24v38C19.9,44.2,6.72,26,6.72,11.43Z" transform="translate(-2.31 -1.17)"/><path id="Shape-5" class="cls-3" d="M44,11.43C44,26,30.78,44.2,25.34,44.2v-38C31.11,6.3,39.36,11.43,44,11.43Z" transform="translate(-2.31 -1.17)"/><path id="Shape-6" class="cls-4" d="M29.89,20.14a1.81,1.81,0,0,1,2.56.05h0a1.83,1.83,0,0,1-.05,2.57l-8.06,7.75a1.8,1.8,0,0,1-2.55-.05,1.46,1.46,0,0,1-.26-.34l-3.36-5.67a1.82,1.82,0,0,1,3.12-1.86h0l2.19,3.71Z" transform="translate(-2.31 -1.17)"/></svg>