<svg id="Capa_1" data-name="Capa 1" xmlns="http://www.w3.org/2000/svg" xmlns:xlink="http://www.w3.org/1999/xlink" viewBox="0 0 9.33 8.99"><defs><style>.cls-1{fill:#7e6ad1;}.cls-2{clip-path:url(#clip-path);}</style><clipPath id="clip-path" transform="translate(1.2 1.02)"><path class="cls-1" d="M1.71,6.07V5A1.21,1.21,0,0,1,.53,3.82V1.92A1.21,1.21,0,0,1,1.74.71H5.2A1.21,1.21,0,0,1,6.41,1.92v1.9A1.21,1.21,0,0,1,5.2,5H3.53L2,6.21a.18.18,0,0,1-.28-.14Z"/></clipPath></defs><path class="cls-1" d="M1.71,6.07V5A1.21,1.21,0,0,1,.53,3.82V1.92A1.21,1.21,0,0,1,1.74.71H5.2A1.21,1.21,0,0,1,6.41,1.92v1.9A1.21,1.21,0,0,1,5.2,5H3.53L2,6.21a.18.18,0,0,1-.28-.14Z" transform="translate(1.2 1.02)"/><g class="cls-2"><rect class="cls-1" width="9.33" height="8.99"/></g></svg>