<?xml version="1.0" encoding="utf-8"?>
<!-- Generator: Adobe Illustrator 25.2.1, SVG Export Plug-In . SVG Version: 6.00 Build 0)  -->
<svg version="1.1" id="Capa_1" xmlns="http://www.w3.org/2000/svg" xmlns:xlink="http://www.w3.org/1999/xlink" x="0px" y="0px"
	 viewBox="0 0 209.9 92.1" style="enable-background:new 0 0 209.9 92.1;" xml:space="preserve">
<style type="text/css">
	.st0{fill:#FFFFFF;}
	.st1{fill:#FFBD46;}
</style>
<g>
	<g>
		<path class="st0" d="M79.6,23.5c-2.5,0.9-9.9,8.8-14,8c-4.1-0.8-3.7-8.1-0.2-7.6c3.5,0.5,2.9,3.9,2.9,3.9s9.8-3.1,10.5-6.1
			s1.6-11.6-2.1-12.3c-3.7-0.7-5.4,2.9-4.8,4.8c0,0-10.9-5.7-18.5,2.6c-1.2-1.6-9.6-6.2-17.5-1.6c-3.1-2.2-4.9-2.8-7.2-1.9
			c0,0-2.7,25.4,3.3,27.4c6.1,2,7.1,0.2,7.7-0.7c0.7-1.1,1.2-13.1-1.1-13.3S35,27.4,35,27.4s3.2-5.8,10.4-3.6
			c1.5,0.4,3.1-0.2,4.4-1.2c-3.2,9.7,5.4,25.5,22.4,16.6c2,1.3,5.1,3.1,7.1,2C81.2,40.1,82.1,22.6,79.6,23.5z"/>
		<path class="st0" d="M143.9,22.5c-2.5,0.9-9.4,9.6-13.5,8.7c-4.1-0.8-3.7-8.1-0.2-7.6c3.5,0.5,2.9,3.9,2.9,3.9s9.8-3.1,10.5-6.1
			c0.7-3,1.6-11.6-2.1-12.3c-3.7-0.7-5.4,2.9-4.8,4.8c0,0-10.3-5.4-17.9,2c-1.5,1-3,2.2-4.4,3.8c-5.3,6.1-13.4,15.5-19.2,11.4
			c-5.8-4.1,0.7-9.5,3.3-9c4.3,0.9,3.4,5.2,1.7,6.6c-1.7,1.3,7.6,1.9,8.7-7c1.2-8.9-11.2-10.5-14.3-9.3c-3.1,1.2-0.4-2.1-2-5.4
			c-1.6-3.3-7.6-6.7-9.6-5.6c0,0-2.2,35.8,2.4,38.2s12,5.9,22-1.8c2.4-1.9,4.8-4.1,7.2-6.3c2.3,7.7,10.1,14,22.3,7.6
			c2,1.3,5.1,3.1,7.1,2S146.4,21.5,143.9,22.5z"/>
		<path class="st0" d="M204.5,23.2C202,24.1,195,32.8,191,32c-4.1-0.8-3.7-8.1-0.2-7.6c3.5,0.5,2.9,3.9,2.9,3.9s9.8-3.1,10.5-6.1
			c0.7-3,1.6-11.6-2.1-12.3c-3.7-0.7-5.4,2.9-4.8,4.8c0,0-13.4-6.9-20.8,5.7c-6.1,9,2.4,29.1,21.1,19.3c2,1.3,5.1,3.1,7.1,2
			S207,22.3,204.5,23.2z"/>
		<path class="st0" d="M163.6,8.1c-8.8,4.2-14.4,0.6-14.4,0.6c-0.1,0.2-3.6,12.8,5.1,12.6s8.9-0.9,8.9-0.9s2.1,19.9-1.9,21.3
			c-4,1.4-7.7-0.6-8.3-3.9c-0.6-1.6-6.7-1-7.4,4.9c-0.2,2,0.9,4,2.8,5.8c2.9-1.8,6.4-3.4,7-1.4c1,3.4,0.2,4.7,0.2,4.7
			s10.6-8.5,13.7-5.6c0.6,0.5,1,1.1,1.3,1.7c1.7-2.2,2.3-4.6,2.5-7c0.2-4.4-0.3-34.3-0.3-34.3S172.4,3.9,163.6,8.1z"/>
		<path class="st0" d="M18.8,19.8c1.2-0.6,2.8-0.9,4.9-0.6c6,0.9,6.5-10.3-1.7-8.5c-1.9,0.4-3.4,1-4.7,1.7c-0.9,0.1-0.4-2.8-1.5-5.8
			c-1.9-5.5-10-4.1-10,1.7l0,5.4C3.7,14,2,15.8,2,18c0,2.2,1.6,4,3.8,4.3l0,12.6c0,0.3,0,0.6,0.1,0.9c0.3,1.9,2.2,7.7,11.5,7.3
			c4.7-0.2,7.2-2.2,8.5-4.5c2.9-5-3.5-10.4-7.9-6.6C18,32,17.9,32,17.8,32.1C13.5,36.1,13.1,23.1,18.8,19.8z"/>
	</g>
	<g>
		<path class="st1" d="M137.3,60l0.5-0.5c0.3,0,0.5-0.2,0.6-0.5c0.1-0.3,0.3-0.5,0.7-0.7c0.4-0.2,0.8-0.5,1.2-1.1
			c0.4-0.6,0.7-0.8,1.1-0.8c0.1,0,0.3,0.1,0.5,0.3c0.2,0.2,0.3,0.4,0.3,0.5c0,0.7-0.2,1.5-0.7,2.3l-0.1,1l-0.2,0.4
			c-0.3,0.2-0.6,0.4-0.7,0.6c-0.1,0.2-0.4,0.5-0.8,0.7l-0.3,0.5c-0.5,0.2-0.8,0.4-1,0.8c-0.2,0.4-0.4,0.6-0.7,0.6
			c-0.3,0-0.6,0.3-1,0.7c-0.2,0.1-0.5,0.2-0.8,0.3l-0.1,0.3c-0.2,0.2-0.6,0.4-1.1,0.5s-0.8,0.3-1.1,0.4c-0.2,0.1-0.4,0.2-0.5,0.2
			c-0.4,0-0.8-0.1-1.2-0.3c-0.4-0.2-0.7-0.3-1.1-0.3c-0.1-0.1-0.2-0.3-0.2-0.4c0-0.2-0.1-0.4-0.3-0.6c-0.2-0.3-0.3-0.6-0.3-1.1
			l0.1-0.6c0-0.1-0.1-0.2-0.2-0.3c-0.1-0.1-0.2-0.2-0.2-0.3c0-0.1,0-0.2,0.1-0.2c0,0,0.1-0.1,0.1-0.2c0-0.1,0-0.2-0.1-0.4
			c0-0.1-0.1-0.2-0.1-0.3l0.2-1.7c0-0.1,0-0.2-0.1-0.2c-0.1,0-0.3,0.1-0.5,0.3c-0.2,0.2-0.5,0.3-0.8,0.3c-0.2,0.1-0.3,0.4-0.4,0.8
			c-0.2,0.2-0.4,0.4-0.7,0.6l-0.1,0.2c0,0.2-0.2,0.3-0.5,0.4c-0.3,0.1-0.5,0.2-0.6,0.4l-0.3,0.3l-0.6-0.1c0,0-0.2,0.2-0.4,0.6
			c-0.2,0.4-0.5,0.6-0.8,0.9l-2.6,2.1c-0.3,0.2-0.7,0.4-1.2,0.7l-0.2,0.2c-1.8,1.2-3.1,1.8-3.8,1.8c-0.6,0-1.3-0.2-2.1-0.5
			c-0.8-0.3-1.3-0.7-1.3-1.2l-0.3-1.4c-0.2-0.3-0.3-0.8-0.3-1.3c0-0.3,0-0.5,0.1-0.5v-0.2l-0.1-1.1c0-0.3,0.2-0.4,0.6-0.4l-0.1-0.9
			c0-0.1,0.2-0.4,0.6-1.1c0.4-0.6,0.7-1,0.8-1.1l0.3-0.4c0-0.3,0.1-0.6,0.5-0.9c0.3-0.3,0.6-0.6,0.8-0.9c0.2-0.3,0.6-0.7,1.2-1.1
			l1-1c0.8-0.8,1.7-1.4,2.6-1.9c0.1,0,0.4-0.3,0.8-0.7c0.4-0.4,0.9-0.7,1.4-0.9c0.5-0.2,1.1-0.4,1.6-0.7c0.5-0.3,0.9-0.4,1.2-0.4
			h0.3c0.1,0,0.7-0.3,1.8-0.8h0.2c0.1,0,0.3,0.1,0.6,0.3h0.1l0.5-0.3c0.1,0,0.2-0.1,0.3-0.1c1.4,0,2.2,1,2.3,2.9
			c0,0.4,0.2,0.6,0.3,0.6c0.2,0,0.5-0.4,1-1.2c0.4-0.8,1.3-1.2,2.7-1.2c1,0,1.5,0.6,1.5,1.9c0,1.5-0.7,2.9-2,4.2
			c-0.1,0.2-0.2,0.4-0.2,0.6l-0.5,1.4v0.1c0,0.1-0.1,0.3-0.3,0.6c-0.2,0.2-0.3,0.4-0.3,0.6l0.1,0.8l-0.1,1c0,0.4,0.1,0.7,0.2,0.8
			c0.7-0.2,1.2-0.5,1.6-0.9c0.3-0.4,0.6-0.7,0.7-0.7l0.3-0.1C136.8,60.5,137,60.2,137.3,60z M126,60c0.1-0.5,0.4-0.9,0.8-1.1
			c0.5-0.3,0.7-0.5,0.8-0.8c0.4-0.3,1-0.9,1.9-1.7c0.8-0.8,1.2-1.3,1.2-1.5c0-0.1,0-0.1-0.1-0.1h-0.1l-0.3,0.2l-0.6-0.1L129,55
			l-0.5-0.2l-0.4,0.1l-0.7-0.1c-0.4,0-0.7,0.1-0.9,0.2c-0.3,0.1-0.8,0.3-1.5,0.5c-0.7,0.2-1.4,0.5-2,0.9c-0.6,0.4-1,0.7-1.3,0.7
			c-0.2,0.3-0.7,0.8-1.6,1.5c-0.5,0.2-0.9,0.6-1.1,1.2c-0.6,0.5-0.9,0.7-0.9,0.8l-0.2,0.6c-0.2,0.2-0.4,0.3-0.7,0.4
			c-0.3,0.1-0.4,0.3-0.5,0.7c0,0.4-0.2,0.7-0.5,1c-0.3,0.3-0.4,0.5-0.4,0.7c0,1.1,0.2,1.7,0.6,1.7c0.2,0,0.6-0.1,1.1-0.4
			c0.6-0.2,0.9-0.4,1-0.5c0.1-0.1,0.3-0.2,0.5-0.3l0.6-0.3c0.1-0.1,0.2-0.1,0.3-0.2s0.2-0.1,0.3-0.2s0.3-0.3,0.6-0.4
			c0.3-0.1,0.5-0.3,0.7-0.6c0.4-0.2,1-0.6,1.9-1.1l0.7-0.5c0.5-0.2,0.8-0.4,0.9-0.6C125.4,60.3,125.7,60.2,126,60z"/>
		<path class="st1" d="M144.8,66.8l0.4-0.5c0.1-0.2,0.2-0.4,0.2-0.6l0.8-2.4c0.3-0.9,0.5-1.3,0.5-1.4l0.1-0.7l0.4-0.8l0.1-0.9
			c0.1-0.7,0.4-1.6,1-2.9l0.1-0.5l0.3-0.7v-0.1c0-0.2-0.1-0.3-0.2-0.3h-0.3c-0.4,0-0.6,0.1-0.7,0.3l-0.2,1c0,0.3-0.2,0.5-0.6,0.5
			c0,0-0.2,0-0.4-0.1c-0.2-0.1-0.3-0.1-0.4-0.1c-0.1,0.3-0.3,0.6-0.5,1c-0.2,0.1-0.6,0.3-1.1,0.7l-0.3,0.1c-0.2,0.4-0.6,0.7-1.1,1.1
			l-0.1,0.2c-0.3,0.5-0.8,0.7-1.3,0.7c-0.7,0-1.1-0.5-1.1-1.5c0-0.6,0.3-1.1,0.9-1.4c0.6-0.3,1-0.6,1.2-0.9c0.2-0.3,0.7-0.6,1.5-1.1
			l0.3-0.5c0.2-0.2,0.3-0.4,0.5-0.4l0.6-0.2c0.1-0.1,0.3-0.1,0.6-0.1l-0.1-0.5c0-0.1,0.3-0.3,0.8-0.4c0.1-0.1,0.4-0.4,0.9-0.7
			c0.5-0.4,1.3-1.3,2.5-2.9c0.1-0.2,0.3-0.4,0.5-0.5c0.3-0.1,0.5-0.3,0.7-0.5h0.7c0.2,0,0.6,0.3,1.2,0.9c0.6,0.6,1,1.4,1,2.3l-1,4.4
			l0.1,0.3l-0.1,0.3c0,0.1,0,0.1,0.1,0.1c0.1,0,0.3-0.2,0.6-0.5c0.1-0.4,0.4-0.8,0.8-1c0.4-0.2,0.7-0.5,0.9-0.7s0.5-0.5,0.8-0.7
			c0.4-0.2,0.8-0.5,1.4-1c0.6-0.5,1.1-0.7,1.6-0.8l0.3-0.2l0.1-0.5c0.4-0.3,0.8-0.6,1.3-0.9L162,50c1-0.3,1.7-0.5,2.2-0.5
			c0.2,0,0.4-0.1,0.6-0.3l0.8,0.3c0,0,0.1-0.1,0.3-0.2c0,0,0-0.1,0.1-0.1c0.9,0,1.7,0.4,2.4,1.1s1,1.5,1,2.4c0,0,0,0.1-0.1,0.3
			c-0.1,0.2-0.1,0.3-0.1,0.4l0.2,0.5v0.1l-0.7,1.9c-0.1,0.2-0.2,0.9-0.4,1.9c-0.4,0.7-0.9,1.3-1.5,1.9c-0.6,0.6-1,1.1-1.1,1.4
			c0.1,0.1,0.2,0.1,0.2,0.1c0.2,0,0.5-0.2,0.9-0.6l1.6-1l0.3,0.1c0.3-0.2,0.6-0.5,1-0.8c0.3-0.3,0.6-0.5,0.9-0.5
			c0.1-0.2,0.4-0.4,0.7-0.7l0.3-0.4c0.1,0,0.3-0.1,0.5-0.2c0.2-0.2,0.4-0.3,0.6-0.3c0.2,0,0.5-0.2,0.7-0.5c0.2-0.3,0.5-0.5,0.6-0.5
			c0.2,0,0.3-0.1,0.3-0.3c0.8-0.8,1.4-1.2,1.8-1.3l0.4-0.1c0,0,0.1-0.1,0.1-0.1c0.2,0,0.4,0.2,0.6,0.7l-0.4,0.7V56l0.1,0.4
			c0,0.2-0.1,0.5-0.4,0.9s-0.6,0.5-0.9,0.5c-0.4,0.2-0.6,0.4-0.7,0.6c-0.1,0.2-0.4,0.5-1,0.9c-0.6,0.4-1,0.8-1.1,1.1
			c-0.1,0.3-0.3,0.5-0.6,0.5l-0.6-0.2c-0.5,0.7-0.9,1-1.1,1h-0.2l-0.1,0.1l-0.4,0.8c-0.2,0-0.4,0.1-0.6,0.2l-0.3-0.1
			c-1.4,1.4-2.3,2.1-2.6,2.1l-0.6-0.1c0,0-0.2,0.1-0.3,0.4c-0.2,0.3-0.3,0.4-0.4,0.6s-0.3,0.3-0.4,0.5h-0.7c-0.2,0-0.5,0.2-1,0.6
			c0,0,0,0.1-0.1,0.1l-0.5-0.2h-0.1c-0.2,0-0.5,0.2-0.9,0.5l-1.1,0.4c0,0,0,0.1-0.1,0.1l-0.7-0.1c-0.1,0-0.3,0.1-0.6,0.3l-0.3,0.2
			c-0.1,0-0.4,0.1-0.7,0.3l-1.1,0.4c-0.1,0-0.2-0.1-0.3-0.1l-0.6,0.1l-0.5-0.1c-0.1,0-0.3,0.2-0.5,0.5c0,0,0,0.1-0.1,0.1
			c0,0-0.2,0-0.3-0.1h-0.4l-0.8,0.2c-0.2,0-0.5-0.2-1-0.5c-0.5-0.4-0.8-0.7-0.9-1l-0.3-0.5c-0.3-0.1-0.5-0.3-0.6-0.4l-0.3,0.1
			c0,0.1-0.1,0.2-0.3,0.4c-0.2,0.2-0.3,0.4-0.3,0.4c0,0.3-0.1,0.7-0.3,1.2c-0.2,0.5-0.5,1.4-0.9,2.6l-0.4,0.5
			c-0.1,0.1-0.1,0.2-0.1,0.3c0,0.2-0.2,0.6-0.5,1.1c0,0.6-0.2,1.1-0.6,1.7l-0.1,0.3V76c0,0.1-0.2,0.7-0.7,1.7l-0.1,0.7
			c-0.1,0-0.4,0.5-0.7,1.3c-0.3,0.9-0.7,1.6-1.2,2.2l-0.3,1.1l-0.3,0.6l-0.2,0.6c0,0.1-0.1,0.2-0.2,0.3l-0.1,0.3l-0.2,0.1
			c0,0.3-0.2,0.9-0.6,1.7c0,0.1-0.1,0.2-0.3,0.5c-0.2,0.2-0.5,0.6-0.8,1c-0.3,0.4-0.7,0.8-1.3,1.2l-1.5,0.9c-1.1,0-1.8-0.6-2.2-1.7
			c0-0.1-0.3-0.5-0.7-1.1c-0.4-0.6-0.6-1.5-0.6-2.7l0.3-1.4c0.2-1.2,0.4-2,0.7-2.3l0.4-0.9c0-0.2,0.1-0.4,0.2-0.5
			c0.1-0.2,0.2-0.4,0.4-0.8c0.1-0.4,0.4-0.7,0.9-1c0.3-0.7,0.6-1.3,1-1.9l0.5-0.9c0-0.3,0.2-0.6,0.7-0.9c0.2-0.4,0.5-0.9,0.8-1.3
			c0.4-0.4,0.6-0.7,0.7-0.8s0.2-0.4,0.3-0.9c0.1-0.5,0.3-0.8,0.6-0.9c0.3-0.1,0.5-0.3,0.5-0.4l0.3-0.6c0.2-0.2,0.4-0.5,0.7-0.8
			c0.2-0.4,0.5-0.6,0.7-0.7C144.2,67.1,144.5,66.8,144.8,66.8z M136.8,85.6c0.1-0.1,0.7-1,1.7-2.6l0.3-0.6c0.2-0.4,0.4-0.7,0.6-0.9
			l0.1-0.3c0.1-0.1,0.2-0.3,0.3-0.5l1.9-4.9c0.3-0.7,0.4-1.2,0.5-1.5c0.1-0.3,0.4-1.3,0.9-2.8c-0.1,0-0.3,0.2-0.4,0.5
			c-0.1,0.3-0.2,0.4-0.3,0.4l-0.5,0.1c0,0-0.2,0.4-0.5,1.2l-0.1,0.2c-0.3,0-0.6,0.2-0.7,0.5l-0.6,1.2v0.5c0,0.5-0.4,1.1-1.2,1.5
			c-0.2,0.7-0.4,1-0.5,1H138l0.1,0.6c0,0.5-0.2,1-0.5,1.3c-0.3,0.4-0.5,0.6-0.5,0.6l0.1,0.7l-0.1,0.6c-0.3,0.7-0.4,1.4-0.4,2.4V85.6
			z M153.1,62.9l1.2-0.2c0.6-0.1,1-0.2,1.1-0.2c0,0,0.1,0,0.3,0.1c0.2,0.1,0.3,0.1,0.5,0.2c0.2,0.1,0.4,0.3,0.6,0.7
			c1.1-0.5,1.8-0.9,2-1.1c0.2-0.2,0.4-0.3,0.6-0.3c0,0,0.1,0,0.2,0.1c0-0.1,0.1-0.2,0.2-0.4c0.1-0.2,0.2-0.3,0.5-0.6
			c0.3-0.2,0.7-0.7,1.2-1.5l1.1-1.3l1.2-1.7c0.3-0.5,0.5-1,0.7-1.6l0.2-0.4c0.1-0.3,0.1-0.4,0.1-0.5c0-0.2-0.2-0.5-0.5-1.1l-0.8,0.4
			v-0.1c-0.3-0.2-0.5-0.3-0.7-0.3c-0.1,0-0.3,0.1-0.4,0.3c-0.1,0.2-0.3,0.3-0.5,0.3c-0.2,0-0.4,0.1-0.6,0.3
			c-0.2,0.2-0.4,0.2-0.6,0.3c-0.3,0-0.5,0.2-0.9,0.5l-0.4-0.1l-0.2,0.2l-0.4-0.1c-0.5,0.5-0.8,0.9-1,1c-0.2,0.1-0.5,0.4-0.8,0.9
			h-0.5c-0.2,0-0.4,0.2-0.5,0.7c-0.2,0.1-0.5,0.4-0.7,0.6l-0.8,0.3c-0.2,0.3-0.4,0.5-0.6,0.7l-1.3,1.7c-0.1,0.1-0.2,0.1-0.3,0.2
			c-0.1,0-0.2,0.1-0.3,0.1l0.2,0.7h-0.1c-0.5,0.3-0.9,0.8-1,1.6l-0.2,0.8c0,0.1,0,0.2,0.1,0.2c0.1,0,0.2-0.1,0.4-0.2
			s0.4-0.4,0.8-0.7C152.6,63.1,152.9,63,153.1,62.9z"/>
		<path class="st1" d="M176,66.8l0.4-0.5c0.1-0.2,0.2-0.4,0.2-0.6l0.8-2.4c0.3-0.9,0.5-1.3,0.5-1.4l0.1-0.7l0.4-0.8l0.1-0.9
			c0.1-0.7,0.4-1.6,1-2.9l0.1-0.5l0.3-0.7v-0.1c0-0.2-0.1-0.3-0.2-0.3h-0.3c-0.4,0-0.6,0.1-0.7,0.3l-0.2,1c0,0.3-0.2,0.5-0.6,0.5
			c0,0-0.2,0-0.4-0.1c-0.2-0.1-0.3-0.1-0.4-0.1c-0.1,0.3-0.3,0.6-0.5,1c-0.2,0.1-0.6,0.3-1.1,0.7l-0.3,0.1c-0.2,0.4-0.6,0.7-1.1,1.1
			l-0.1,0.2c-0.3,0.5-0.8,0.7-1.3,0.7c-0.7,0-1.1-0.5-1.1-1.5c0-0.6,0.3-1.1,0.9-1.4c0.6-0.3,1-0.6,1.2-0.9c0.2-0.3,0.7-0.6,1.5-1.1
			l0.3-0.5c0.2-0.2,0.3-0.4,0.5-0.4l0.6-0.2c0.1-0.1,0.3-0.1,0.6-0.1l-0.1-0.5c0-0.1,0.3-0.3,0.8-0.4c0.1-0.1,0.4-0.4,0.9-0.7
			c0.5-0.4,1.3-1.3,2.5-2.9c0.1-0.2,0.3-0.4,0.5-0.5c0.3-0.1,0.5-0.3,0.7-0.5h0.7c0.2,0,0.6,0.3,1.2,0.9c0.6,0.6,1,1.4,1,2.3l-1,4.4
			l0.1,0.3l-0.1,0.3c0,0.1,0,0.1,0.1,0.1c0.1,0,0.3-0.2,0.6-0.5c0.1-0.4,0.4-0.8,0.8-1c0.4-0.2,0.7-0.5,0.9-0.7
			c0.2-0.3,0.5-0.5,0.8-0.7c0.4-0.2,0.8-0.5,1.4-1c0.6-0.5,1.1-0.7,1.6-0.8L191,52l0.1-0.5c0.4-0.3,0.8-0.6,1.3-0.9l0.8-0.6
			c1-0.3,1.7-0.5,2.2-0.5c0.2,0,0.4-0.1,0.6-0.3l0.8,0.3c0,0,0.1-0.1,0.3-0.2c0,0,0-0.1,0.1-0.1c0.9,0,1.7,0.4,2.4,1.1
			c0.6,0.7,1,1.5,1,2.4c0,0,0,0.1-0.1,0.3c-0.1,0.2-0.1,0.3-0.1,0.4l0.2,0.5v0.1l-0.7,1.9c-0.1,0.2-0.2,0.9-0.4,1.9
			c-0.4,0.7-0.9,1.3-1.5,1.9c-0.6,0.6-1,1.1-1.1,1.4c0.1,0.1,0.2,0.1,0.2,0.1c0.2,0,0.5-0.2,0.9-0.6l1.6-1l0.3,0.1
			c0.3-0.2,0.6-0.5,1-0.8c0.3-0.3,0.6-0.5,0.9-0.5c0.1-0.2,0.4-0.4,0.7-0.7l0.3-0.4c0.1,0,0.3-0.1,0.5-0.2c0.2-0.2,0.4-0.3,0.6-0.3
			c0.2,0,0.5-0.2,0.7-0.5c0.2-0.3,0.5-0.5,0.6-0.5c0.2,0,0.3-0.1,0.3-0.3c0.8-0.8,1.4-1.2,1.8-1.3l0.4-0.1c0,0,0.1-0.1,0.1-0.1
			c0.2,0,0.4,0.2,0.6,0.7l-0.4,0.7V56l0.1,0.4c0,0.2-0.1,0.5-0.4,0.9s-0.6,0.5-0.9,0.5c-0.4,0.2-0.6,0.4-0.7,0.6
			c-0.1,0.2-0.4,0.5-1,0.9c-0.6,0.4-1,0.8-1.1,1.1c-0.1,0.3-0.3,0.5-0.6,0.5l-0.6-0.2c-0.5,0.7-0.9,1-1.1,1h-0.2l-0.1,0.1l-0.4,0.8
			c-0.2,0-0.4,0.1-0.6,0.2l-0.3-0.1c-1.4,1.4-2.3,2.1-2.6,2.1l-0.6-0.1c0,0-0.2,0.1-0.3,0.4c-0.2,0.3-0.3,0.4-0.4,0.6
			s-0.3,0.3-0.4,0.5h-0.7c-0.2,0-0.5,0.2-1,0.6c0,0,0,0.1-0.1,0.1l-0.5-0.2h-0.1c-0.2,0-0.5,0.2-0.9,0.5l-1.1,0.4c0,0,0,0.1-0.1,0.1
			l-0.7-0.1c-0.1,0-0.3,0.1-0.6,0.3l-0.3,0.2c-0.1,0-0.4,0.1-0.7,0.3l-1.1,0.4c-0.1,0-0.2-0.1-0.3-0.1l-0.6,0.1l-0.5-0.1
			c-0.1,0-0.3,0.2-0.5,0.5c0,0,0,0.1-0.1,0.1c0,0-0.2,0-0.3-0.1h-0.4l-0.8,0.2c-0.2,0-0.5-0.2-1-0.5s-0.8-0.7-0.9-1l-0.3-0.5
			c-0.3-0.1-0.5-0.3-0.6-0.4l-0.3,0.1c0,0.1-0.1,0.2-0.3,0.4c-0.2,0.2-0.3,0.4-0.3,0.4c0,0.3-0.1,0.7-0.3,1.2
			c-0.2,0.5-0.5,1.4-0.9,2.6l-0.4,0.5c-0.1,0.1-0.1,0.2-0.1,0.3c0,0.2-0.2,0.6-0.5,1.1c0,0.6-0.2,1.1-0.6,1.7l-0.1,0.3V76
			c0,0.1-0.2,0.7-0.7,1.7l-0.1,0.7c-0.1,0-0.4,0.5-0.7,1.3c-0.3,0.9-0.7,1.6-1.2,2.2l-0.3,1.1l-0.3,0.6l-0.2,0.6
			c0,0.1-0.1,0.2-0.2,0.3l-0.1,0.3l-0.2,0.1c0,0.3-0.2,0.9-0.6,1.7c0,0.1-0.1,0.2-0.3,0.5c-0.2,0.2-0.5,0.6-0.8,1
			c-0.3,0.4-0.7,0.8-1.3,1.2l-1.5,0.9c-1.1,0-1.8-0.6-2.2-1.7c0-0.1-0.3-0.5-0.7-1.1c-0.4-0.6-0.6-1.5-0.6-2.7l0.3-1.4
			c0.2-1.2,0.4-2,0.7-2.3l0.4-0.9c0-0.2,0.1-0.4,0.2-0.5c0.1-0.2,0.2-0.4,0.4-0.8c0.1-0.4,0.4-0.7,0.9-1c0.3-0.7,0.6-1.3,1-1.9
			l0.5-0.9c0-0.3,0.2-0.6,0.7-0.9c0.2-0.4,0.5-0.9,0.8-1.3c0.4-0.4,0.6-0.7,0.7-0.8c0.1-0.1,0.2-0.4,0.3-0.9
			c0.1-0.5,0.3-0.8,0.6-0.9c0.3-0.1,0.5-0.3,0.5-0.4l0.3-0.6c0.2-0.2,0.4-0.5,0.7-0.8c0.2-0.4,0.5-0.6,0.7-0.7
			C175.5,67.1,175.7,66.8,176,66.8z M168,85.6c0.1-0.1,0.7-1,1.7-2.6l0.3-0.6c0.2-0.4,0.4-0.7,0.6-0.9l0.1-0.3
			c0.1-0.1,0.2-0.3,0.3-0.5l1.9-4.9c0.3-0.7,0.4-1.2,0.5-1.5c0.1-0.3,0.4-1.3,0.9-2.8c-0.1,0-0.3,0.2-0.4,0.5
			c-0.1,0.3-0.2,0.4-0.3,0.4l-0.5,0.1c0,0-0.2,0.4-0.5,1.2l-0.1,0.2c-0.3,0-0.6,0.2-0.7,0.5l-0.6,1.2v0.5c0,0.5-0.4,1.1-1.2,1.5
			c-0.2,0.7-0.4,1-0.5,1h-0.3l0.1,0.6c0,0.5-0.2,1-0.5,1.3c-0.3,0.4-0.5,0.6-0.5,0.6l0.1,0.7l-0.1,0.6c-0.3,0.7-0.4,1.4-0.4,2.4
			V85.6z M184.4,62.9l1.2-0.2c0.6-0.1,1-0.2,1.1-0.2c0,0,0.1,0,0.3,0.1c0.2,0.1,0.3,0.1,0.5,0.2c0.2,0.1,0.4,0.3,0.6,0.7
			c1.1-0.5,1.8-0.9,2-1.1c0.2-0.2,0.4-0.3,0.6-0.3c0,0,0.1,0,0.2,0.1c0-0.1,0.1-0.2,0.2-0.4c0.1-0.2,0.2-0.3,0.5-0.6
			c0.3-0.2,0.7-0.7,1.2-1.5l1.1-1.3l1.2-1.7c0.3-0.5,0.5-1,0.7-1.6l0.2-0.4c0.1-0.3,0.1-0.4,0.1-0.5c0-0.2-0.2-0.5-0.5-1.1l-0.8,0.4
			v-0.1c-0.3-0.2-0.5-0.3-0.7-0.3c-0.1,0-0.3,0.1-0.4,0.3c-0.1,0.2-0.3,0.3-0.5,0.3c-0.2,0-0.4,0.1-0.6,0.3
			c-0.2,0.2-0.4,0.2-0.6,0.3c-0.3,0-0.5,0.2-0.9,0.5l-0.4-0.1l-0.2,0.2l-0.4-0.1c-0.5,0.5-0.8,0.9-1,1c-0.2,0.1-0.5,0.4-0.8,0.9
			h-0.5c-0.2,0-0.4,0.2-0.5,0.7c-0.2,0.1-0.5,0.4-0.7,0.6l-0.8,0.3c-0.2,0.3-0.4,0.5-0.6,0.7l-1.3,1.7c-0.1,0.1-0.2,0.1-0.3,0.2
			c-0.1,0-0.2,0.1-0.3,0.1l0.2,0.7h-0.1c-0.5,0.3-0.9,0.8-1,1.6l-0.2,0.8c0,0.1,0,0.2,0.1,0.2s0.2-0.1,0.4-0.2
			c0.2-0.2,0.4-0.4,0.8-0.7S184.2,63,184.4,62.9z"/>
	</g>
</g>
</svg>
