<svg id="Capa_1" data-name="Capa 1" xmlns="http://www.w3.org/2000/svg" xmlns:xlink="http://www.w3.org/1999/xlink" viewBox="0 0 35.8 35.8"><defs><style>.cls-1{fill:url(#Degradado_sin_nombre_156);}.cls-2{fill:#fff;}</style><linearGradient id="Degradado_sin_nombre_156" x1="8.82" y1="36.06" x2="29.96" y2="-6.23" gradientUnits="userSpaceOnUse"><stop offset="0" stop-color="#006bff"/><stop offset="1" stop-color="#d46ab1"/></linearGradient></defs><rect class="cls-1" width="35.8" height="35.8" rx="17.9"/><path class="cls-2" d="M19.6,17a4.36,4.36,0,0,1,2.71-.32c3.33.52,3.59-5.67-1-4.71a9.54,9.54,0,0,0-2.59.95c-.51.07-.25-1.56-.82-3.22a2.85,2.85,0,0,0-5.53,1v3a2.37,2.37,0,0,0,0,4.7v6.92a2.63,2.63,0,0,0,.05.49c.19,1,1.19,4.23,6.36,4a5.16,5.16,0,0,0,4.68-2.49,2.88,2.88,0,0,0-4.35-3.63l-.12.11C16.65,26,16.47,18.82,19.6,17Z" transform="translate(-0.61 -0.63)"/></svg>