<svg id="Capa_1" data-name="Capa 1" xmlns="http://www.w3.org/2000/svg" viewBox="0 0 151.15 151.15"><defs><style>.cls-1{fill:#081920;}.cls-2{fill:#ffbd46;}</style></defs><circle class="cls-1" cx="75.57" cy="75.57" r="75.57"/><path class="cls-2" d="M87.5,66.55c2.66-1.33,6.33-2.12,11.32-1.34,13.91,2.18,15-23.68-4-19.66a39.21,39.21,0,0,0-10.84,4c-2.13.29-1-6.49-3.41-13.46-4.32-12.64-23.1-9.37-23.08,4l0,12.54a9.88,9.88,0,0,0,0,19.62l.06,28.9a10.68,10.68,0,0,0,.18,2c.79,4.31,5,17.66,26.55,16.9,10.74-.37,16.5-5.06,19.56-10.39,6.67-11.62-8-23.91-18.16-15.15l-.51.46C75.2,104.16,74.46,74.17,87.5,66.55Z" transform="translate(-1.81 -0.53)"/></svg>