<svg id="Capa_1" data-name="Capa 1" xmlns="http://www.w3.org/2000/svg" xmlns:xlink="http://www.w3.org/1999/xlink" viewBox="0 0 97.05 97.05"><defs><style>.cls-1{fill:url(#Degradado_sin_nombre_5);}.cls-2{fill:#fff;}</style><linearGradient id="Degradado_sin_nombre_5" y1="48.53" x2="97.05" y2="48.53" gradientUnits="userSpaceOnUse"><stop offset="0" stop-color="#17b7bd"/><stop offset="1" stop-color="#9deb93"/></linearGradient></defs><g id="ic_logo" data-name="ic logo"><rect id="Rectangle_16" data-name="Rectangle 16" class="cls-1" width="97.05" height="97.05" rx="13.68"/></g><path class="cls-2" d="M52.66,46.38a11.73,11.73,0,0,1,7.23-.86C68.77,46.91,69.46,30.4,57.32,33a25,25,0,0,0-6.92,2.53c-1.37.19-.66-4.14-2.18-8.59-2.76-8.08-14.76-6-14.74,2.55l0,8a6.31,6.31,0,0,0,0,12.52l0,18.46a7.17,7.17,0,0,0,.11,1.31c.51,2.75,3.19,11.27,17,10.79,6.87-.24,10.54-3.23,12.49-6.64,4.26-7.42-5.12-15.27-11.59-9.67l-.33.29C44.8,70.4,44.33,51.24,52.66,46.38Z" transform="translate(-0.7 -0.79)"/></svg>