<svg id="Capa_1" data-name="Capa 1" xmlns="http://www.w3.org/2000/svg" viewBox="0 0 20.51 18.12"><defs><style>.cls-1{fill:#7e6ad1;}</style></defs><g id="Contact_Us" data-name="Contact Us"><path id="Shape-8" class="cls-1" d="M18.08,18.86a1.46,1.46,0,0,1-.68-.17L14,16.8a2.11,2.11,0,0,0-1-.26H9.44A3.49,3.49,0,0,1,6,13.05V11.94L3.84,13.11a1.4,1.4,0,0,1-2-1.74L2,11H1.76A1.4,1.4,0,0,1,.36,9.57V4.22A3.48,3.48,0,0,1,3.84.74h8a3.5,3.5,0,0,1,3.49,3.49h0a2.09,2.09,0,0,0,2.09,2.09h0A3.5,3.5,0,0,1,20.87,9.8v5.34a1.4,1.4,0,0,1-1.4,1.4h-.26l.16.41a1.39,1.39,0,0,1-.78,1.81A1.29,1.29,0,0,1,18.08,18.86ZM7.35,9.8v3.25a2.09,2.09,0,0,0,2.09,2.09h3.9a2.11,2.11,0,0,1,1,.26l3.73,2.06-.94-2.32h2.33V9.8a2.08,2.08,0,0,0-2.08-2.09h-8A2.09,2.09,0,0,0,7.35,9.8Z" transform="translate(-0.36 -0.74)"/><path id="Shape-9" class="cls-1" d="M9.22,10.5h8.39a.7.7,0,1,0,0-1.4H9.22a.7.7,0,1,0,0,1.4Z" transform="translate(-0.36 -0.74)"/><path id="Shape-10" class="cls-1" d="M9.22,13.28h8.39a.7.7,0,1,0,0-1.39H9.22a.7.7,0,1,0,0,1.39Z" transform="translate(-0.36 -0.74)"/></g></svg>