<svg id="Capa_1" data-name="Capa 1" xmlns="http://www.w3.org/2000/svg" xmlns:xlink="http://www.w3.org/1999/xlink" viewBox="0 0 11.7 13.65"><defs><style>.cls-1{fill:url(#Degradado_sin_nombre_6);}</style><linearGradient id="Degradado_sin_nombre_6" x1="8.31" y1="892.98" x2="8.88" y2="892.4" gradientTransform="matrix(20.4, 0, 0, -23.8, -169.63, 21255.2)" gradientUnits="userSpaceOnUse"><stop offset="0" stop-color="#ffbbba"/><stop offset="1" stop-color="#e73e79"/></linearGradient></defs><g id="notif"><g id="ic_notif" data-name="ic notif"><g id="iconspace_Notification_25px" data-name="iconspace Notification 25px"><path id="Combined_Shape-3" data-name="Combined Shape-3" class="cls-1" d="M4.52,12.81h3.9A2.12,2.12,0,0,1,6.47,14,2.12,2.12,0,0,1,4.52,12.81ZM1,12a.38.38,0,0,1-.39-.39.39.39,0,0,1,.06-.21l1.5-2.24v-3a4.29,4.29,0,0,1,8.58,0v3l1.49,2.24a.4.4,0,0,1-.1.54.44.44,0,0,1-.22.07ZM6.47.33A2.17,2.17,0,0,1,8.38,1.42a6.09,6.09,0,0,0-3.82,0A2.17,2.17,0,0,1,6.47.33Z" transform="translate(-0.62 -0.33)"/></g></g></g></svg>