<svg id="Capa_1" data-name="Capa 1" xmlns="http://www.w3.org/2000/svg" viewBox="0 0 19.74 19.67"><defs><style>.cls-1{fill:#c4c2cb;}</style></defs><g id="ic_saving" data-name="ic saving"><g id="iconspace_Safety_Deposit_Box_25px_Copy" data-name="iconspace Safety Deposit Box 25px Copy"><path id="Combined_Shape-6" data-name="Combined Shape-6" class="cls-1" d="M15.33,20.36A1.41,1.41,0,0,1,13.92,19v-.47h4.7V19a1.41,1.41,0,0,1-1.41,1.4ZM4,20.36A1.41,1.41,0,0,1,2.63,19v-.47H7.34V19a1.41,1.41,0,0,1-1.41,1.4ZM2.63,17.55A1.88,1.88,0,0,1,.75,15.68V2.56A1.88,1.88,0,0,1,2.63.69h16A1.88,1.88,0,0,1,20.5,2.56V15.68a1.88,1.88,0,0,1-1.88,1.87ZM3.57,5.37v7.5a1.88,1.88,0,0,0,1.89,1.87H15.8a1.88,1.88,0,0,0,1.88-1.87V5.37A1.88,1.88,0,0,0,15.8,3.5H5.46A1.88,1.88,0,0,0,3.57,5.37ZM5.46,13.8a1,1,0,0,1-1-.93V5.37a.94.94,0,0,1,1-.93H15.8a.93.93,0,0,1,.94.93v.94H15.33a.47.47,0,1,0,0,.94h1.41V11H15.33a.47.47,0,0,0,0,.94h1.41v.94a.94.94,0,0,1-.94.93ZM6.4,9.12A2.82,2.82,0,1,0,9.22,6.31,2.81,2.81,0,0,0,6.4,9.12Zm.94,0A1.88,1.88,0,1,1,9.22,11,1.87,1.87,0,0,1,7.34,9.12Z" transform="translate(-0.75 -0.69)"/></g></g></svg>