<svg id="Capa_1" data-name="Capa 1" xmlns="http://www.w3.org/2000/svg" viewBox="0 0 58.79 81.73"><defs><style>.cls-1{fill:#fff;}.cls-2{fill:#692db7;}.cls-3{fill:#040000;}.cls-4{fill:#34314f;}.cls-5{fill:#7e6ad1;}</style></defs><path class="cls-1" d="M39.13,28.32,35.25,14.65A2.12,2.12,0,0,0,35,14c-4.31-6.46-10.39-2.19-13,.18A2.3,2.3,0,0,0,21.44,17l2.89,5.64A2.31,2.31,0,0,1,24.15,25l-1.56,2.17a2.3,2.3,0,0,0,.28,3l4.14,4a2.3,2.3,0,0,0,3.48-.33l1.12-1.6a2.31,2.31,0,0,1,2.2-.95,14.39,14.39,0,0,0,3.43,0A2.3,2.3,0,0,0,39.13,28.32Z" transform="translate(-3.88 -2.2)"/><path class="cls-2" d="M35.7,16.22a29.74,29.74,0,0,0,5.31,5,.44.44,0,0,1-.13.81c-1.34.31-3.32.76-3.33.73Z" transform="translate(-3.88 -2.2)"/><path class="cls-3" d="M25.62,20.94l1.25-6.22s7.06,4.21,11.39-2.44S32.39.87,26.71,5.68c-6.46,5.62-5.57,3.74-5.57,3.74s-2.71-2.3-5.63-.51c-1.46.89-2.81,3.75.27,6.63l8,7.43Z" transform="translate(-3.88 -2.2)"/><ellipse class="cls-1" cx="23.4" cy="21.1" rx="2.31" ry="3.29" transform="translate(-11.46 13.15) rotate(-31.53)"/><path class="cls-3" d="M32.46,31a8.88,8.88,0,0,1-4.4-2.41L31,33.1Z" transform="translate(-3.88 -2.2)"/><path class="cls-3" d="M31.5,18.92a.45.45,0,0,0,.39-.23,2,2,0,0,1,2.42-1,.45.45,0,1,0,.29-.85,2.93,2.93,0,0,0-3.5,1.39.45.45,0,0,0,.18.61A.54.54,0,0,0,31.5,18.92Z" transform="translate(-3.88 -2.2)"/><ellipse class="cls-3" cx="34.18" cy="19.6" rx="0.55" ry="1.12" transform="translate(-7.3 5.63) rotate(-12.45)"/><path class="cls-3" d="M33.46,15h.09c.16,0,4-.85,5.64-4.1,1.13-2.24.91-5.07-.66-8.38a.45.45,0,0,0-.59-.22.46.46,0,0,0-.22.6c1.45,3.05,1.67,5.61.67,7.6-1.43,2.87-5,3.62-5,3.62a.45.45,0,0,0-.35.53A.46.46,0,0,0,33.46,15Z" transform="translate(-3.88 -2.2)"/><path class="cls-4" d="M30.89,30.51a9.79,9.79,0,0,1-1.22-.62c-.45-.28-.83-.58-.83-.58Z" transform="translate(-3.88 -2.2)"/><path class="cls-3" d="M24.41,23a.42.42,0,0,0,.26-.08.44.44,0,0,0,.1-.62l-2-2.86a.45.45,0,0,0-.74.51l2,2.86A.44.44,0,0,0,24.41,23Z" transform="translate(-3.88 -2.2)"/><path d="M36.37,26.08a4,4,0,0,0,2.09-.67.45.45,0,1,0-.52-.73,2.71,2.71,0,0,1-2.32.36.45.45,0,1,0-.35.82A2.77,2.77,0,0,0,36.37,26.08Z" transform="translate(-3.88 -2.2)"/><path class="cls-2" d="M16.49,35s4.44-8.76,9.32-4.9,18.39,25,18.39,25l-7.28,8.66Z" transform="translate(-3.88 -2.2)"/><path class="cls-5" d="M38.22,49.64l5.32-12L55.09,40s-5,24.75-10.23,25.08-13.2-3.63-13.2-3.63L13.19,36.69c-.27-.38,5.72-11.63,10.22-9.57" transform="translate(-3.88 -2.2)"/><path class="cls-1" d="M44.53,38l4.95-16.49s-5.59-7.18-4.39-7.82a23.1,23.1,0,0,1,5-1.09s3.8,4.11,3.63,8.91,0,18.14,0,18.14" transform="translate(-3.88 -2.2)"/><polygon class="cls-2" points="35.7 13.38 36.69 17.01 43.62 16.68 41.31 11.4 35.7 13.38"/><path class="cls-1" d="M44.86,13.6a3.65,3.65,0,0,1,1.65-1.32c1.32-.66,2.64-1,4,0s3.3,5,3.3,8.58-4.29,1-4.29,1-3.93-7.94-4.61-8.1" transform="translate(-3.88 -2.2)"/><path class="cls-2" d="M9.56,81.89H29c.42-11.8,1.65-36.62,1.65-36.62L22.48,30.73S13.19,33.39,11.21,42.3c-1.36,6.12-5.59,26.13-6.6,37.94C4,81.89,8.51,81.89,9.56,81.89Z" transform="translate(-3.88 -2.2)"/><path class="cls-5" d="M4.59,83.84h.16l.56,0c.45,0,.9,0,1.35,0,1.35,0,2.7,0,4.05,0h7.75c2.78,0,5.55.07,8.32.13a.83.83,0,0,0,.85-.79C28.32,69.35,29.8,40.19,30,37.25a.86.86,0,0,0-.1-.44,28.87,28.87,0,0,1-2.57-4.51,59.23,59.23,0,0,0-4.43-4.1l-.66.47a.85.85,0,0,0-.71.07c-1.36.83-6.44,4.14-8.53,8.67C8.52,47,5.32,70.47,3.89,82.92a.82.82,0,0,0,.69.91Z" transform="translate(-3.88 -2.2)"/><path class="cls-2" d="M50.14,11.62,61,8.32l1.65,9.57-9.28.88S51.46,11.62,50.14,11.62Z" transform="translate(-3.88 -2.2)"/></svg>