<svg id="Capa_1" data-name="Capa 1" xmlns="http://www.w3.org/2000/svg" viewBox="0 0 18.88 18.83"><defs><style>.cls-1{fill:#7e6ad1;}</style></defs><g id="ic_analytics" data-name="ic analytics"><g id="iconspace_Chart_25px_Copy" data-name="iconspace Chart 25px Copy"><path id="path-13" class="cls-1" d="M1.33,10.7A9.07,9.07,0,0,1,5.18,3.28a3.65,3.65,0,0,1,5.75,3V7a3.18,3.18,0,0,0,3.19,3.18h.77a3.66,3.66,0,0,1,3,5.77A9.13,9.13,0,0,1,1.33,10.7ZM16.52,8.31a3.66,3.66,0,0,1-3.66-3.67h0A3.65,3.65,0,0,1,19,1.92c.1.09.19.19.28.28a3.65,3.65,0,0,1-2.71,6.11Z" transform="translate(-1.33 -0.96)"/></g></g></svg>