<svg id="Capa_1" data-name="Capa 1" xmlns="http://www.w3.org/2000/svg" xmlns:xlink="http://www.w3.org/1999/xlink" viewBox="0 0 14.45 14.45"><defs><style>.cls-1{fill:url(#Degradado_sin_nombre_2);}</style><linearGradient id="Degradado_sin_nombre_2" x1="8.31" y1="903" x2="8.31" y2="901.92" gradientTransform="matrix(25.2, 0, 0, -25.2, -201.63, 22753.59)" gradientUnits="userSpaceOnUse"><stop offset="0" stop-color="#ffc996"/><stop offset="1" stop-color="#e73e79"/></linearGradient></defs><g id="about_us" data-name="about us"><g id="ic_about_us" data-name="ic about us"><g id="Iconspace_Project_File_Information_25px" data-name="Iconspace Project File Information 25px"><path id="Path-4" class="cls-1" d="M3.24,14.76A2.42,2.42,0,0,1,.88,12.82L.53,11a.33.33,0,0,1,.27-.4H5.7a.35.35,0,0,1,.35.34h0l0,1H9.47V11a.35.35,0,0,1,.35-.34h4.8A.34.34,0,0,1,15,11,.17.17,0,0,1,15,11l-.35,1.78a2.41,2.41,0,0,1-2.36,1.94Zm5.55-3.44H6.73V11a1,1,0,0,0-1-1.05H1.21V2.71A2.4,2.4,0,0,1,3.62.31h8.25a2.4,2.4,0,0,1,2.41,2.4V9.94H9.82a1,1,0,0,0-1,1v.36ZM7.4,7.53a.35.35,0,0,0,.34.35.35.35,0,0,0,.35-.35.35.35,0,0,0-.35-.34.34.34,0,0,0-.34.34Zm0-4.13V6.16a.34.34,0,0,0,.34.34.35.35,0,0,0,.35-.34V3.4a.35.35,0,0,0-.35-.34A.34.34,0,0,0,7.4,3.4Z" transform="translate(-0.52 -0.31)"/></g></g></g></svg>