<svg id="Capa_1" data-name="Capa 1" xmlns="http://www.w3.org/2000/svg" xmlns:xlink="http://www.w3.org/1999/xlink" viewBox="0 0 19.5 19.5"><defs><style>.cls-1{fill:none;}.cls-2{fill:url(#Degradado_sin_nombre_5);}</style><linearGradient id="Degradado_sin_nombre_5" x1="8.53" y1="889.26" x2="8.37" y2="889.68" gradientTransform="matrix(20.4, 0, 0, -24.39, -166.61, 21695.36)" gradientUnits="userSpaceOnUse"><stop offset="0" stop-color="#17b7bd"/><stop offset="1" stop-color="#9deb93"/></linearGradient></defs><g id="address"><g id="ic_address" data-name="ic address"><g id="iconspace_Location_2_25px" data-name="iconspace Location 2 25px"><path id="Path-10" class="cls-1" d="M-3.36-2.17h19.5v19.5H-3.36Z" transform="translate(3.36 2.17)"/><path id="Combined_Shape-4" data-name="Combined Shape-4" class="cls-2" d="M6.12,14.1,2.29,10.25a5.85,5.85,0,1,1,8.27-.07l-.07.08L6.67,14.1a.38.38,0,0,1-.55,0ZM4.44,6A2,2,0,1,0,6.39,4.07,2,2,0,0,0,4.44,6Zm.78,0A1.17,1.17,0,0,1,7.56,6,1.17,1.17,0,0,1,5.22,6Z" transform="translate(3.36 2.17)"/></g></g></g></svg>