<svg id="Capa_1" data-name="Capa 1" xmlns="http://www.w3.org/2000/svg" viewBox="0 0 20.65 8.6"><defs><style>.cls-1{fill:none;}.cls-2{fill:#7d5dc0;}</style></defs><g id="credit_card" data-name="credit card"><g id="logo_visa" data-name="logo visa"><g id="visa_logo" data-name="visa logo"><rect id="Rectangle_4" data-name="Rectangle 4" class="cls-1" width="20.65" height="8.6"/><g id="visa-pay-logo"><path id="Shape" class="cls-2" d="M8.62,1.1l-1,5.84H9.22l1-5.84Z" transform="translate(-0.29 0.46)"/><path id="Shape-2" class="cls-2" d="M6.27,1.1l-1.58,4-.16-.61A6.33,6.33,0,0,0,2.3,2.06L3.74,6.94h1.7L8,1.1Z" transform="translate(-0.29 0.46)"/><path id="Shape-3" class="cls-2" d="M3.92,1.52a.64.64,0,0,0-.7-.47H.73l0,.11A5.12,5.12,0,0,1,4.46,4.1Z" transform="translate(-0.29 0.46)"/><path id="Shape-4" class="cls-2" d="M13.48,2.22a2.91,2.91,0,0,1,1.2.22l.15.07L15,1.24A4.16,4.16,0,0,0,13.6,1c-1.59,0-2.7.8-2.71,1.93,0,.84.79,1.31,1.4,1.59s.84.47.84.73-.5.57-1,.57a3.48,3.48,0,0,1-1.52-.31l-.2-.09-.23,1.31A5.19,5.19,0,0,0,12,7c1.69,0,2.79-.79,2.8-2,0-.66-.42-1.17-1.35-1.59-.56-.27-.91-.45-.9-.72S12.85,2.22,13.48,2.22Z" transform="translate(-0.29 0.46)"/><path id="Shape-5" class="cls-2" d="M19,6.94s-.15-.67-.2-.87H16.72c-.07.15-.34.87-.34.87H14.69l2.39-5.35a.8.8,0,0,1,.84-.49h1.24l1.3,5.84Z" transform="translate(-0.29 0.46)"/></g></g></g></g></svg>